<svg xmlns="http://www.w3.org/2000/svg" xmlns:xlink="http://www.w3.org/1999/xlink" contentStyleType="text/css" data-diagram-type="ACTIVITY" height="862px" preserveAspectRatio="none" style="width:490px;height:862px;background:#FFFFFF;" version="1.1" viewBox="0 0 490 862" width="490px" zoomAndPan="magnify"><title>GEOPolyhedron.CreateStartingPolyhedron()</title><defs/><g><g class="title" data-source-line="20"><rect fill="none" height="31.1465" rx="5" ry="5" style="stroke:#000000;stroke-width:2;" width="457.126" x="15" y="15"/><text fill="#000000" font-family="Serif" font-size="18" font-weight="bold" lengthAdjust="spacing" textLength="447.126" x="20" y="36.9014">GEOPolyhedron.CreateStartingPolyhedron()</text></g><line style="stroke:none;stroke-width:1.5;" x1="192.4392" x2="259.3259" y1="52.1465" y2="52.1465"/><polygon fill="#F1F1F1" points="177.9958,73.6465,216.8826,73.6465,206.8826,91.7949,216.8826,109.9434,177.9958,109.9434" style="stroke:#181818;stroke-width:0.5;"/><text fill="#000000" font-family="sans-serif" font-size="14" lengthAdjust="spacing" textLength="8.8867" x="187.9958" y="96.6416">p</text><polygon fill="#F1F1F1" points="244.8826,73.6465,283.7693,73.6465,273.7693,91.7949,283.7693,109.9434,244.8826,109.9434" style="stroke:#181818;stroke-width:0.5;"/><text fill="#000000" font-family="sans-serif" font-size="14" lengthAdjust="spacing" textLength="8.8867" x="254.8826" y="96.6416">q</text><line style="stroke:#181818;stroke-width:1.5;" x1="192.4392" x2="259.3259" y1="129.9434" y2="129.9434"/><rect fill="#F1F1F1" height="36.2969" style="stroke:#181818;stroke-width:0.5;" width="317.0762" x="72.3445" y="175.542"/><text fill="#000000" font-family="sans-serif" font-size="14" lengthAdjust="spacing" textLength="130.2793" x="82.3445" y="198.5371">Initialising starting</text><text fill="#470968" font-family="sans-serif" font-size="14" font-weight="bold" lengthAdjust="spacing" textLength="89.5371" x="217.074" y="198.5371">polyhedron</text><text fill="#000000" font-family="sans-serif" font-size="14" lengthAdjust="spacing" textLength="68.3594" x="311.0613" y="198.5371">attributes</text><rect fill="none" height="251.4844" rx="3.5" ry="3.5" style="stroke:#000000;stroke-width:1.5;" width="374.7412" x="43.512" y="337.0703"/><path d="M229.1135,337.0703 L229.1135,346.3672 L219.1135,356.3672 L43.512,356.3672" fill="none" style="stroke:#000000;stroke-width:1.5;"/><text fill="#000000" font-family="sans-serif" font-size="14" lengthAdjust="spacing" textLength="59.8623" x="46.512" y="351.0654">Creating</text><text fill="#000000" font-family="sans-serif" font-size="14" font-weight="bold" lengthAdjust="spacing" textLength="111.2891" x="110.8245" y="351.0654">CoordVertices</text><polygon fill="#F1F1F1" points="218.8826,373.3672,242.8826,373.3672,254.8826,385.3672,242.8826,397.3672,218.8826,397.3672,206.8826,385.3672,218.8826,373.3672" style="stroke:#181818;stroke-width:0.5;"/><text fill="#000000" font-family="sans-serif" font-size="14" lengthAdjust="spacing" textLength="8.8867" x="226.4392" y="390.2139">q</text><rect fill="#F1F1F1" height="36.2969" rx="12.5" ry="12.5" style="stroke:#181818;stroke-width:0.5;" width="106.5566" x="53.512" y="439.9609"/><text fill="#000000" font-family="sans-serif" font-size="14" lengthAdjust="spacing" textLength="86.5566" x="63.512" y="462.9561">Tetrahedron</text><rect fill="#F1F1F1" height="36.2969" rx="12.5" ry="12.5" style="stroke:#181818;stroke-width:0.5;" width="102.3525" x="180.0686" y="439.9609"/><text fill="#000000" font-family="sans-serif" font-size="14" lengthAdjust="spacing" textLength="82.3525" x="190.0686" y="462.9561">Octahedron</text><rect fill="#F1F1F1" height="36.2969" rx="12.5" ry="12.5" style="stroke:#181818;stroke-width:0.5;" width="105.832" x="302.4211" y="439.9609"/><text fill="#000000" font-family="sans-serif" font-size="14" lengthAdjust="spacing" textLength="85.832" x="312.4211" y="462.9561">Icosahedron</text><polygon fill="#F1F1F1" points="230.8826,496.2578,230.8826,496.2578,242.8826,508.2578,230.8826,520.2578,230.8826,520.2578,218.8826,508.2578,230.8826,496.2578" style="stroke:#181818;stroke-width:0.5;"/><polygon fill="#F1F1F1" points="71.8137,540.2578,399.9514,540.2578,389.9514,576.5547,61.8137,576.5547" style="stroke:#181818;stroke-width:0.5;"/><text fill="#000000" font-family="sans-serif" font-size="14" lengthAdjust="spacing" textLength="202.3984" x="71.8137" y="563.2529">Saving their coordinates into</text><text fill="#000000" font-family="sans-serif" font-size="14" font-weight="bold" lengthAdjust="spacing" textLength="111.2891" x="278.6624" y="563.2529">CoordVertices</text><path d="M67.5193,598.5547 L193.7019,598.5547 A5.25,5.25 0 0 1 197.2019,602.0547 L204.2019,637.1484 L394.2458,637.1484 A3.5,3.5 0 0 1 397.7458,640.6484 L397.7458,791.5391 A3.5,3.5 0 0 1 394.2458,795.0391 L67.5193,795.0391 A3.5,3.5 0 0 1 64.0193,791.5391 L64.0193,602.0547 A3.5,3.5 0 0 1 67.5193,598.5547" fill="#BCE5FF" style="stroke:#000000;stroke-width:1.5;"/><line style="stroke:#000000;stroke-width:1.5;" x1="64.0193" x2="204.2019" y1="637.1484" y2="637.1484"/><text fill="#000000" font-family="sans-serif" font-size="14" font-weight="bold" lengthAdjust="spacing" textLength="122.7324" x="68.0193" y="613.5498">GEOPolyhedron</text><text fill="#000000" font-family="sans-serif" font-size="14" lengthAdjust="spacing" textLength="4.4502" x="190.7517" y="613.5498">&#160;</text><text fill="#000000" font-family="sans-serif" font-size="14" lengthAdjust="spacing" textLength="61.3594" x="68.0193" y="629.8467">methods</text><rect fill="#F1F1F1" height="36.2969" style="stroke:#181818;stroke-width:0.5;" width="271.166" x="95.2996" y="651.1484"/><line style="stroke:#181818;stroke-width:0.5;" x1="100.2996" x2="100.2996" y1="651.1484" y2="687.4453"/><line style="stroke:#181818;stroke-width:0.5;" x1="361.4656" x2="361.4656" y1="651.1484" y2="687.4453"/><text fill="#000000" font-family="sans-serif" font-size="14" font-style="italic" lengthAdjust="spacing" textLength="76.6787" x="105.2996" y="674.1436">.FindEdges</text><text fill="#000000" font-family="sans-serif" font-size="14" lengthAdjust="spacing" textLength="5.4619" x="181.9783" y="674.1436">(</text><text fill="#A70E18" font-family="sans-serif" font-size="14" font-weight="bold" lengthAdjust="spacing" textLength="58.1602" x="187.4402" y="674.1436">nullVec</text><text fill="#000000" font-family="sans-serif" font-size="14" lengthAdjust="spacing" textLength="4.4502" x="245.6003" y="674.1436">,</text><text fill="#0B91D5" font-family="sans-serif" font-size="14" font-weight="bold" lengthAdjust="spacing" textLength="96.5029" x="254.5007" y="674.1436">edgesFound</text><text fill="#000000" font-family="sans-serif" font-size="14" lengthAdjust="spacing" textLength="5.4619" x="351.0037" y="674.1436">)</text><rect fill="#F1F1F1" height="52.5938" style="stroke:#181818;stroke-width:0.5;" width="313.7266" x="74.0193" y="722.4453"/><line style="stroke:#181818;stroke-width:0.5;" x1="79.0193" x2="79.0193" y1="722.4453" y2="775.0391"/><line style="stroke:#181818;stroke-width:0.5;" x1="382.7458" x2="382.7458" y1="722.4453" y2="775.0391"/><text fill="#000000" font-family="sans-serif" font-size="14" lengthAdjust="spacing" textLength="22.251" x="84.0193" y="745.4404">&#160;&#160;&#160;&#160;&#160;</text><text fill="#000000" font-family="sans-serif" font-size="14" font-style="italic" lengthAdjust="spacing" textLength="74.3887" x="106.2703" y="745.4404">.FindFaces</text><text fill="#000000" font-family="sans-serif" font-size="14" lengthAdjust="spacing" textLength="5.4619" x="180.6589" y="745.4404">(</text><text fill="#A70E18" font-family="sans-serif" font-size="14" font-weight="bold" lengthAdjust="spacing" textLength="58.1602" x="186.1208" y="745.4404">nullVec</text><text fill="#000000" font-family="sans-serif" font-size="14" lengthAdjust="spacing" textLength="4.4502" x="244.281" y="745.4404">,</text><text fill="#0B91D5" font-family="sans-serif" font-size="14" font-weight="bold" lengthAdjust="spacing" textLength="90.8018" x="253.1814" y="745.4404">facesFound</text><text fill="#000000" font-family="sans-serif" font-size="14" lengthAdjust="spacing" textLength="4.4502" x="343.9832" y="745.4404">,</text><text fill="#13463D" font-family="sans-serif" font-size="14" font-weight="bold" lengthAdjust="spacing" textLength="105.9844" x="84.0193" y="761.7373">vecVertFaces</text><text fill="#000000" font-family="sans-serif" font-size="14" lengthAdjust="spacing" textLength="8.9004" x="190.0037" y="761.7373">,,</text><text fill="#4D018F" font-family="sans-serif" font-size="14" font-weight="bold" lengthAdjust="spacing" textLength="168.9297" x="203.3542" y="761.7373">numAdjacentVertices</text><text fill="#000000" font-family="sans-serif" font-size="14" lengthAdjust="spacing" textLength="5.4619" x="372.2839" y="761.7373">)</text><rect fill="#F1F1F1" height="36.2969" rx="12.5" ry="12.5" style="stroke:#181818;stroke-width:0.5;" width="239.6797" x="111.0427" y="815.0391"/><text fill="#000000" font-family="sans-serif" font-size="14" lengthAdjust="spacing" textLength="55.8496" x="121.0427" y="838.0342">Starting</text><text fill="#470968" font-family="sans-serif" font-size="14" font-weight="bold" lengthAdjust="spacing" textLength="89.5371" x="181.3425" y="838.0342">polyhedron</text><text fill="#000000" font-family="sans-serif" font-size="14" lengthAdjust="spacing" textLength="65.3926" x="275.3298" y="838.0342">complete</text><line style="stroke:#181818;stroke-width:1;" x1="192.4392" x2="192.4392" y1="109.9434" y2="129.9434"/><polygon fill="#181818" points="188.4392,119.9434,192.4392,129.9434,196.4392,119.9434,192.4392,123.9434" style="stroke:#181818;stroke-width:1;"/><line style="stroke:#181818;stroke-width:1;" x1="259.3259" x2="259.3259" y1="109.9434" y2="129.9434"/><polygon fill="#181818" points="255.3259,119.9434,259.3259,129.9434,263.3259,119.9434,259.3259,123.9434" style="stroke:#181818;stroke-width:1;"/><line style="stroke:#181818;stroke-width:1;" x1="230.8826" x2="230.8826" y1="131.4434" y2="175.542"/><polygon fill="#181818" points="226.8826,165.542,230.8826,175.542,234.8826,165.542,230.8826,169.542" style="stroke:#181818;stroke-width:1;"/><text fill="#000000" font-family="sans-serif" font-size="14" lengthAdjust="spacing" textLength="210.7314" x="234.8826" y="154.7402">Passing arguments to method</text><line style="stroke:#181818;stroke-width:1;" x1="206.8826" x2="106.7903" y1="385.3672" y2="385.3672"/><line style="stroke:#181818;stroke-width:1;" x1="106.7903" x2="106.7903" y1="385.3672" y2="439.9609"/><polygon fill="#181818" points="102.7903,429.9609,106.7903,439.9609,110.7903,429.9609,106.7903,433.9609" style="stroke:#181818;stroke-width:1;"/><text fill="#000000" font-family="sans-serif" font-size="14" lengthAdjust="spacing" textLength="8.9072" x="106.7903" y="417.5107">3</text><line style="stroke:#181818;stroke-width:1;" x1="254.8826" x2="355.3372" y1="385.3672" y2="385.3672"/><line style="stroke:#181818;stroke-width:1;" x1="355.3372" x2="355.3372" y1="385.3672" y2="439.9609"/><polygon fill="#181818" points="351.3372,429.9609,355.3372,439.9609,359.3372,429.9609,355.3372,433.9609" style="stroke:#181818;stroke-width:1;"/><text fill="#000000" font-family="sans-serif" font-size="14" lengthAdjust="spacing" textLength="8.9072" x="355.3372" y="417.5107">5</text><line style="stroke:#181818;stroke-width:1;" x1="230.8826" x2="230.8826" y1="397.3672" y2="411.5651"/><line style="stroke:#181818;stroke-width:1;" x1="230.8826" x2="231.2449" y1="411.5651" y2="411.5651"/><line style="stroke:#181818;stroke-width:1;" x1="231.2449" x2="231.2449" y1="411.5651" y2="439.9609"/><polygon fill="#181818" points="227.2449,429.9609,231.2449,439.9609,235.2449,429.9609,231.2449,433.9609" style="stroke:#181818;stroke-width:1;"/><text fill="#000000" font-family="sans-serif" font-size="14" lengthAdjust="spacing" textLength="8.9072" x="230.8826" y="418.5107">4</text><line style="stroke:#181818;stroke-width:1;" x1="106.7903" x2="106.7903" y1="476.2578" y2="508.2578"/><line style="stroke:#181818;stroke-width:1;" x1="106.7903" x2="218.8826" y1="508.2578" y2="508.2578"/><polygon fill="#181818" points="208.8826,504.2578,218.8826,508.2578,208.8826,512.2578,212.8826,508.2578" style="stroke:#181818;stroke-width:1;"/><line style="stroke:#181818;stroke-width:1;" x1="355.3372" x2="355.3372" y1="476.2578" y2="508.2578"/><line style="stroke:#181818;stroke-width:1;" x1="355.3372" x2="242.8826" y1="508.2578" y2="508.2578"/><polygon fill="#181818" points="252.8826,504.2578,242.8826,508.2578,252.8826,512.2578,248.8826,508.2578" style="stroke:#181818;stroke-width:1;"/><line style="stroke:#181818;stroke-width:1;" x1="231.2449" x2="231.2449" y1="476.2578" y2="481.2578"/><line style="stroke:#181818;stroke-width:1;" x1="231.2449" x2="230.8826" y1="481.2578" y2="481.2578"/><line style="stroke:#181818;stroke-width:1;" x1="230.8826" x2="230.8826" y1="481.2578" y2="496.2578"/><polygon fill="#181818" points="226.8826,486.2578,230.8826,496.2578,234.8826,486.2578,230.8826,490.2578" style="stroke:#181818;stroke-width:1;"/><line style="stroke:#181818;stroke-width:1;" x1="230.8826" x2="230.8826" y1="520.2578" y2="540.2578"/><polygon fill="#181818" points="226.8826,530.2578,230.8826,540.2578,234.8826,530.2578,230.8826,534.2578" style="stroke:#181818;stroke-width:1;"/><line style="stroke:#181818;stroke-width:1;" x1="230.8826" x2="230.8826" y1="211.8389" y2="373.3672"/><polygon fill="#181818" points="226.8826,363.3672,230.8826,373.3672,234.8826,363.3672,230.8826,367.3672" style="stroke:#181818;stroke-width:1;"/><text fill="#000000" font-family="sans-serif" font-size="14" lengthAdjust="spacing" textLength="170.3242" x="234.8826" y="236.6357">All the coordinates were</text><text fill="#000000" font-family="sans-serif" font-size="14" lengthAdjust="spacing" textLength="82.3936" x="234.8826" y="252.9326">found using</text><text fill="#000000" font-family="sans-serif" font-size="14" font-style="italic" lengthAdjust="spacing" textLength="70.7109" x="321.7263" y="252.9326">GeoGebra</text><text fill="#000000" font-family="sans-serif" font-size="14" lengthAdjust="spacing" textLength="46.9834" x="392.4373" y="252.9326">: using</text><text fill="#000000" font-family="sans-serif" font-size="14" lengthAdjust="spacing" textLength="119.4033" x="234.8826" y="269.2295">it we created the</text><text fill="#470968" font-family="sans-serif" font-size="14" font-weight="bold" lengthAdjust="spacing" textLength="79.3994" x="358.7361" y="269.2295">polyhedra</text><text fill="#000000" font-family="sans-serif" font-size="14" lengthAdjust="spacing" textLength="4.4502" x="438.1355" y="269.2295">&#160;</text><text fill="#000000" font-family="sans-serif" font-size="14" lengthAdjust="spacing" textLength="176.7295" x="234.8826" y="285.5264">and then copied their full</text><text fill="#000000" font-family="sans-serif" font-size="14" font-weight="bold" lengthAdjust="spacing" textLength="93.1943" x="234.8826" y="301.8232">coordinates</text><text fill="#000000" font-family="sans-serif" font-size="14" lengthAdjust="spacing" textLength="78.4014" x="332.5271" y="301.8232">in the code</text><text fill="#000000" font-family="sans-serif" font-size="14" lengthAdjust="spacing" textLength="4.4502" x="234.8826" y="318.1201">&#160;</text><text fill="#000000" font-family="sans-serif" font-size="14" lengthAdjust="spacing" textLength="4.4502" x="234.8826" y="334.417">&#160;</text><line style="stroke:#181818;stroke-width:1;" x1="230.8826" x2="230.8826" y1="687.4453" y2="722.4453"/><polygon fill="#181818" points="226.8826,712.4453,230.8826,722.4453,234.8826,712.4453,230.8826,716.4453" style="stroke:#181818;stroke-width:1;"/><line style="stroke:#181818;stroke-width:1;" x1="230.8826" x2="230.8826" y1="576.5547" y2="651.1484"/><polygon fill="#181818" points="226.8826,641.1484,230.8826,651.1484,234.8826,641.1484,230.8826,645.1484" style="stroke:#181818;stroke-width:1;"/><line style="stroke:#181818;stroke-width:1;" x1="230.8826" x2="230.8826" y1="775.0391" y2="815.0391"/><polygon fill="#181818" points="226.8826,805.0391,230.8826,815.0391,234.8826,805.0391,230.8826,809.0391" style="stroke:#181818;stroke-width:1;"/><!--SRC=[fLDDRnen5BpxLrZ91L0I8910O6K921j5gfgeHBcqFHZx0IwBlRMzYT8e_xt-s6ItAQrKbSDAUEPvvirxJenzoe2Wd6ehh53o6M7t-wGAoMTAIz1uW5wGmzcMhc4Vway-20apbIcD3y-dizDq4awdhcYj8pbWqzdyB4rV0eYaikLzl_7IT3xeNRoWf5tQCriXdKMwmnnMjCXiggHTY1-0k_qQw5h8m4CVwGxm0hHOxKDZuV0zD5MQWuuMffdpj9zmjn5iAy4OVBgVK8-dsq41mLVpcrkLFMs0QoLFPXgeXONrgSjr1JIQoEIPi26MuyyRmJd8hySa_1_bOvmaJh2mX4GUfcigv7xszpeR9CVnvcE2RwanJXPJlIvs8At1Lk4Ts8tYOpIwbcuHQ2O2nPGMSQkLi3YS_g1pSJua-Plff1qGqcfXQgqMoyA2yUAMcgtJTegJBCDs0vWfbv2GhdU37q43MlciS16q4a6kG5t1KjEaBSYeF4QkpKTN6YBZuPe_cg4rBuZAm9PEDHUnKcYyAh8C9KjIivAqbmGBMJhaWD2uUX0up2huMvAPBxe71x5OzepCex1iWnlVcuXH0xZHQyRyxy1g6XCQbr2_X6wOVOUSbSWrK-ODSaEBjwFHWZvu2x65Uef2kjdjS-O7OEW3k06uzrijwkrhO_LrFupxNhvoVD1g_RAlBiqlCYw8EOXlTkIcTP8AoUTyxGK5QRnEPNGu6NJctI6HBkfxODLCZd35wKmlkfTd17nvwhUWeZMzzrmh1hpGle4Ww3_uLJMbx7zKLxxydUeH3ZeLjzlhd_SkoGCmdskf-CQktzg_x7I7gLFUJVWtnvEsciHVctAJ6It-xOanjSipi31672nbcvy0]--></g></svg>