<svg xmlns="http://www.w3.org/2000/svg" xmlns:xlink="http://www.w3.org/1999/xlink" contentStyleType="text/css" data-diagram-type="ACTIVITY" height="1506px" preserveAspectRatio="none" style="width:729px;height:1506px;background:#FFFFFF;" version="1.1" viewBox="0 0 729 1506" width="729px" zoomAndPan="magnify"><title>Dijkstra</title><defs/><g><g class="title" data-source-line="17"><rect fill="none" height="31.1465" rx="5" ry="5" style="stroke:#000000;stroke-width:2;" width="91.0264" x="317.7944" y="15"/><text fill="#000000" font-family="Serif" font-size="18" font-weight="bold" lengthAdjust="spacing" textLength="81.0264" x="322.7944" y="36.9014">Dijkstra</text></g><line style="stroke:none;stroke-width:1.5;" x1="52.9141" x2="639.1357" y1="52.1465" y2="52.1465"/><polygon fill="#F1F1F1" points="20,73.6465,95.8281,73.6465,85.8281,91.7949,95.8281,109.9434,20,109.9434" style="stroke:#181818;stroke-width:0.5;"/><text fill="#000000" font-family="sans-serif" font-size="14" lengthAdjust="spacing" textLength="45.8281" x="30" y="96.6416">adjList</text><polygon fill="#F1F1F1" points="123.8281,73.6465,243.3652,73.6465,233.3652,91.7949,243.3652,109.9434,123.8281,109.9434" style="stroke:#181818;stroke-width:0.5;"/><text fill="#470968" font-family="sans-serif" font-size="14" font-weight="bold" lengthAdjust="spacing" textLength="89.5371" x="133.8281" y="96.6416">polyhedron</text><polygon fill="#F1F1F1" points="271.3652,73.6465,320.2324,73.6465,310.2324,91.7949,320.2324,109.9434,271.3652,109.9434" style="stroke:#181818;stroke-width:0.5;"/><text fill="#DC143C" font-family="sans-serif" font-size="14" font-weight="bold" lengthAdjust="spacing" textLength="18.8672" x="281.3652" y="96.6416">v1</text><polygon fill="#F1F1F1" points="348.2324,73.6465,397.0996,73.6465,387.0996,91.7949,397.0996,109.9434,348.2324,109.9434" style="stroke:#181818;stroke-width:0.5;"/><text fill="#1E90FF" font-family="sans-serif" font-size="14" font-weight="bold" lengthAdjust="spacing" textLength="18.8672" x="358.2324" y="96.6416">v2</text><polygon fill="#F1F1F1" points="425.0996,73.6465,557.4814,73.6465,547.4814,91.7949,557.4814,109.9434,425.0996,109.9434" style="stroke:#181818;stroke-width:0.5;"/><text fill="#808000" font-family="sans-serif" font-size="14" font-weight="bold" lengthAdjust="spacing" textLength="102.3818" x="435.0996" y="96.6416">matrWeights</text><polygon fill="#F1F1F1" points="585.4814,73.6465,702.79,73.6465,692.79,91.7949,702.79,109.9434,585.4814,109.9434" style="stroke:#181818;stroke-width:0.5;"/><text fill="#9932CC" font-family="sans-serif" font-size="14" font-weight="bold" lengthAdjust="spacing" textLength="87.3086" x="595.4814" y="96.6416">lengthPath</text><line style="stroke:#181818;stroke-width:1.5;" x1="52.9141" x2="639.1357" y1="129.9434" y2="129.9434"/><rect fill="#F1F1F1" height="36.2969" style="stroke:#181818;stroke-width:0.5;" width="378.8662" x="171.9619" y="175.542"/><text fill="#000000" font-family="sans-serif" font-size="14" lengthAdjust="spacing" textLength="155.2031" x="181.9619" y="198.5371">Initializing the vectors</text><text fill="#C71585" font-family="sans-serif" font-size="14" font-weight="bold" lengthAdjust="spacing" textLength="67.0537" x="341.6152" y="198.5371">distance</text><text fill="#000000" font-family="sans-serif" font-size="14" lengthAdjust="spacing" textLength="26.3389" x="413.1191" y="198.5371">and</text><text fill="#008080" font-family="sans-serif" font-size="14" font-weight="bold" lengthAdjust="spacing" textLength="96.9199" x="443.9082" y="198.5371">predecessor</text><rect fill="#F1F1F1" height="36.2969" style="stroke:#181818;stroke-width:0.5;" width="221.6123" x="250.5889" y="231.8389"/><text fill="#000000" font-family="sans-serif" font-size="14" lengthAdjust="spacing" textLength="178.2949" x="260.5889" y="254.834">Setting the source vertex</text><text fill="#DC143C" font-family="sans-serif" font-size="14" font-weight="bold" lengthAdjust="spacing" textLength="18.8672" x="443.334" y="254.834">v1</text><rect fill="#F1F1F1" height="36.2969" style="stroke:#181818;stroke-width:0.5;" width="238.3125" x="242.2388" y="313.7344"/><text fill="#000000" font-family="sans-serif" font-size="14" lengthAdjust="spacing" textLength="99.0527" x="252.2388" y="336.7295">Initializing the</text><text fill="#FF8C00" font-family="sans-serif" font-size="14" font-weight="bold" lengthAdjust="spacing" textLength="114.8096" x="355.7417" y="336.7295">priority_queue</text><rect fill="none" height="651.1172" rx="3.5" ry="3.5" style="stroke:#000000;stroke-width:1.5;" width="612.1602" x="23.8145" y="404.0313"/><path d="M352.5195,404.0313 L352.5195,413.3281 L342.5195,423.3281 L23.8145,423.3281" fill="none" style="stroke:#000000;stroke-width:1.5;"/><text fill="#000000" font-family="sans-serif" font-size="14" lengthAdjust="spacing" textLength="134.4492" x="26.8145" y="418.0264">Repeating until the</text><text fill="#FF8C00" font-family="sans-serif" font-size="14" font-weight="bold" lengthAdjust="spacing" textLength="114.8096" x="165.7139" y="418.0264">priority_queue</text><text fill="#000000" font-family="sans-serif" font-size="14" lengthAdjust="spacing" textLength="60.5459" x="284.9736" y="418.0264">is empty</text><rect fill="#F1F1F1" height="52.5938" style="stroke:#181818;stroke-width:0.5;" width="428.0713" x="147.3594" y="440.3281"/><line style="stroke:#181818;stroke-width:0.5;" x1="152.3594" x2="152.3594" y1="440.3281" y2="492.9219"/><line style="stroke:#181818;stroke-width:0.5;" x1="570.4307" x2="570.4307" y1="440.3281" y2="492.9219"/><text fill="#000000" font-family="sans-serif" font-size="14" lengthAdjust="spacing" textLength="171.9785" x="157.3594" y="463.3232">Dequeue the first vertex</text><text fill="#0000CD" font-family="sans-serif" font-size="14" font-weight="bold" lengthAdjust="spacing" textLength="9.9668" x="333.7881" y="463.3232">u</text><text fill="#000000" font-family="sans-serif" font-size="14" lengthAdjust="spacing" textLength="40.1885" x="348.2051" y="463.3232">in the</text><text fill="#FF8C00" font-family="sans-serif" font-size="14" font-weight="bold" lengthAdjust="spacing" textLength="114.8096" x="392.8438" y="463.3232">priority_queue</text><text fill="#000000" font-family="sans-serif" font-size="14" lengthAdjust="spacing" textLength="37.8164" x="512.1035" y="463.3232">using</text><text fill="#000000" font-family="sans-serif" font-size="14" font-style="italic" lengthAdjust="spacing" textLength="38.3154" x="157.3594" y="479.6201">.top()</text><text fill="#000000" font-family="sans-serif" font-size="14" lengthAdjust="spacing" textLength="26.3389" x="200.125" y="479.6201">and</text><text fill="#000000" font-family="sans-serif" font-size="14" font-style="italic" lengthAdjust="spacing" textLength="41.7129" x="230.9141" y="479.6201">.pop()</text><text fill="#000000" font-family="sans-serif" font-size="14" lengthAdjust="spacing" textLength="198.8301" x="277.0771" y="479.6201">and saving its distance from</text><text fill="#DC143C" font-family="sans-serif" font-size="14" font-weight="bold" lengthAdjust="spacing" textLength="18.8672" x="480.3574" y="479.6201">v1</text><text fill="#000000" font-family="sans-serif" font-size="14" lengthAdjust="spacing" textLength="15.873" x="503.6748" y="479.6201">as</text><text fill="#000000" font-family="sans-serif" font-size="14" font-style="italic" lengthAdjust="spacing" textLength="41.4326" x="523.998" y="479.6201">dist_u</text><path d="M325.958,563.0703 L320.958,581.2188 L325.958,599.3672 M396.832,563.0703 L401.832,581.2188 L396.832,599.3672" fill="#F1F1F1" style="stroke:#181818;stroke-width:0.5;"/><text fill="#000000" font-family="sans-serif" font-size="14" lengthAdjust="spacing" textLength="60.874" x="330.958" y="586.0654">continue</text><polygon fill="#F1F1F1" points="157.7524,512.9219,565.0376,512.9219,577.0376,524.9219,565.0376,536.9219,157.7524,536.9219,145.7524,524.9219,157.7524,512.9219" style="stroke:#181818;stroke-width:0.5;"/><text fill="#FF0000" font-family="sans-serif" font-size="14" lengthAdjust="spacing" textLength="24.1924" x="365.395" y="549.917">yes</text><text fill="#000000" font-family="sans-serif" font-size="14" lengthAdjust="spacing" textLength="94.2266" x="157.7524" y="529.7686">Has a shorter</text><text fill="#C71585" font-family="sans-serif" font-size="14" font-weight="bold" lengthAdjust="spacing" textLength="67.0537" x="256.4292" y="529.7686">distance</text><text fill="#000000" font-family="sans-serif" font-size="14" lengthAdjust="spacing" textLength="37.2764" x="327.9331" y="529.7686">(than</text><text fill="#000000" font-family="sans-serif" font-size="14" font-style="italic" lengthAdjust="spacing" textLength="41.4326" x="369.6597" y="529.7686">dist_u</text><text fill="#000000" font-family="sans-serif" font-size="14" lengthAdjust="spacing" textLength="153.9453" x="411.0923" y="529.7686">) already been found?</text><text fill="#008000" font-family="sans-serif" font-size="14" lengthAdjust="spacing" textLength="17.4385" x="577.0376" y="521.6201">no</text><polygon fill="#F1F1F1" points="361.395,619.3672,373.395,631.3672,361.395,643.3672,349.395,631.3672,361.395,619.3672" style="stroke:#181818;stroke-width:0.5;"/><rect fill="none" height="293.7813" rx="3.5" ry="3.5" style="stroke:#000000;stroke-width:1.5;" width="568.1602" x="33.8145" y="697.3672"/><path d="M239.2061,697.3672 L239.2061,706.6641 L229.2061,716.6641 L33.8145,716.6641" fill="none" style="stroke:#000000;stroke-width:1.5;"/><text fill="#000000" font-family="sans-serif" font-size="14" lengthAdjust="spacing" textLength="80.0283" x="36.8145" y="711.3623">New vertex</text><text fill="#32CD32" font-family="sans-serif" font-size="14" font-weight="bold" lengthAdjust="spacing" textLength="12.9336" x="121.293" y="711.3623">w</text><text fill="#000000" font-family="sans-serif" font-size="14" lengthAdjust="spacing" textLength="79.1123" x="138.6768" y="711.3623">adjacent to</text><text fill="#0000CD" font-family="sans-serif" font-size="14" font-weight="bold" lengthAdjust="spacing" textLength="9.9668" x="222.2393" y="711.3623">u</text><polygon fill="#F1F1F1" points="203.2524,733.6641,519.5376,733.6641,531.5376,745.6641,519.5376,757.6641,203.2524,757.6641,191.2524,745.6641,203.2524,733.6641" style="stroke:#181818;stroke-width:0.5;"/><text fill="#000000" font-family="sans-serif" font-size="14" lengthAdjust="spacing" textLength="113.0254" x="203.2524" y="750.5107">Passing through</text><text fill="#0000CD" font-family="sans-serif" font-size="14" font-weight="bold" lengthAdjust="spacing" textLength="9.9668" x="320.728" y="750.5107">u</text><text fill="#000000" font-family="sans-serif" font-size="14" lengthAdjust="spacing" textLength="159.5781" x="335.145" y="750.5107">gives a shorter path to</text><text fill="#32CD32" font-family="sans-serif" font-size="14" font-weight="bold" lengthAdjust="spacing" textLength="12.9336" x="499.1733" y="750.5107">w</text><text fill="#000000" font-family="sans-serif" font-size="14" lengthAdjust="spacing" textLength="7.4307" x="512.1069" y="750.5107">?</text><text fill="#008000" font-family="sans-serif" font-size="14" lengthAdjust="spacing" textLength="24.1924" x="167.0601" y="742.3623">yes</text><text fill="#FF0000" font-family="sans-serif" font-size="14" lengthAdjust="spacing" textLength="17.4385" x="531.5376" y="742.3623">no</text><rect fill="#F1F1F1" height="52.5938" style="stroke:#181818;stroke-width:0.5;" width="239.9668" x="61.269" y="767.6641"/><line style="stroke:#181818;stroke-width:0.5;" x1="66.269" x2="66.269" y1="767.6641" y2="820.2578"/><line style="stroke:#181818;stroke-width:0.5;" x1="296.2358" x2="296.2358" y1="767.6641" y2="820.2578"/><text fill="#000000" font-family="sans-serif" font-size="14" lengthAdjust="spacing" textLength="78.1279" x="71.269" y="790.6592">Update the</text><text fill="#C71585" font-family="sans-serif" font-size="14" font-weight="bold" lengthAdjust="spacing" textLength="67.0537" x="153.8472" y="790.6592">distance</text><text fill="#000000" font-family="sans-serif" font-size="14" lengthAdjust="spacing" textLength="14.0547" x="225.3511" y="790.6592">to</text><text fill="#32CD32" font-family="sans-serif" font-size="14" font-weight="bold" lengthAdjust="spacing" textLength="12.9336" x="243.856" y="790.6592">w</text><text fill="#000000" font-family="sans-serif" font-size="14" lengthAdjust="spacing" textLength="205.5498" x="71.269" y="806.9561">with the one passing through</text><text fill="#0000CD" font-family="sans-serif" font-size="14" font-weight="bold" lengthAdjust="spacing" textLength="9.9668" x="281.269" y="806.9561">u</text><rect fill="#F1F1F1" height="36.2969" style="stroke:#181818;stroke-width:0.5;" width="241.8535" x="60.3257" y="840.2578"/><line style="stroke:#181818;stroke-width:0.5;" x1="65.3257" x2="65.3257" y1="840.2578" y2="876.5547"/><line style="stroke:#181818;stroke-width:0.5;" x1="297.1792" x2="297.1792" y1="840.2578" y2="876.5547"/><text fill="#000000" font-family="sans-serif" font-size="14" lengthAdjust="spacing" textLength="22.9893" x="70.3257" y="863.2529">Set</text><text fill="#0000CD" font-family="sans-serif" font-size="14" font-weight="bold" lengthAdjust="spacing" textLength="9.9668" x="97.7651" y="863.2529">u</text><text fill="#000000" font-family="sans-serif" font-size="14" lengthAdjust="spacing" textLength="43.2988" x="112.1821" y="863.2529">as the</text><text fill="#008080" font-family="sans-serif" font-size="14" font-weight="bold" lengthAdjust="spacing" textLength="96.9199" x="159.9312" y="863.2529">predecessor</text><text fill="#000000" font-family="sans-serif" font-size="14" lengthAdjust="spacing" textLength="13.4941" x="261.3013" y="863.2529">of</text><text fill="#32CD32" font-family="sans-serif" font-size="14" font-weight="bold" lengthAdjust="spacing" textLength="12.9336" x="279.2456" y="863.2529">w</text><rect fill="#F1F1F1" height="52.5938" style="stroke:#181818;stroke-width:0.5;" width="254.876" x="53.8145" y="896.5547"/><line style="stroke:#181818;stroke-width:0.5;" x1="58.8145" x2="58.8145" y1="896.5547" y2="949.1484"/><line style="stroke:#181818;stroke-width:0.5;" x1="303.6904" x2="303.6904" y1="896.5547" y2="949.1484"/><text fill="#000000" font-family="sans-serif" font-size="14" lengthAdjust="spacing" textLength="117.4414" x="63.8145" y="919.5498">Add the updated</text><text fill="#C71585" font-family="sans-serif" font-size="14" font-weight="bold" lengthAdjust="spacing" textLength="67.0537" x="185.7061" y="919.5498">distance</text><text fill="#000000" font-family="sans-serif" font-size="14" lengthAdjust="spacing" textLength="41.4805" x="257.21" y="919.5498">to the</text><text fill="#000000" font-family="sans-serif" font-size="14" lengthAdjust="spacing" textLength="8.9004" x="63.8145" y="935.8467">&#160;&#160;</text><text fill="#FF8C00" font-family="sans-serif" font-size="14" font-weight="bold" lengthAdjust="spacing" textLength="114.8096" x="72.7148" y="935.8467">priority_queue</text><text fill="#000000" font-family="sans-serif" font-size="14" lengthAdjust="spacing" textLength="37.8164" x="191.9746" y="935.8467">using</text><text fill="#000000" font-family="sans-serif" font-size="14" font-style="italic" lengthAdjust="spacing" textLength="49.3008" x="234.2412" y="935.8467">.push()</text><path d="M506.1006,767.6641 L501.1006,785.8125 L506.1006,803.9609 M576.9746,767.6641 L581.9746,785.8125 L576.9746,803.9609" fill="#F1F1F1" style="stroke:#181818;stroke-width:0.5;"/><text fill="#000000" font-family="sans-serif" font-size="14" lengthAdjust="spacing" textLength="60.874" x="511.1006" y="790.6592">continue</text><polygon fill="#F1F1F1" points="361.395,955.1484,373.395,967.1484,361.395,979.1484,349.395,967.1484,361.395,955.1484" style="stroke:#181818;stroke-width:0.5;"/><polygon fill="#F1F1F1" points="361.395,663.3672,373.395,675.3672,361.395,687.3672,349.395,675.3672,361.395,663.3672" style="stroke:#181818;stroke-width:0.5;"/><polygon fill="#F1F1F1" points="190.0864,1011.1484,532.7036,1011.1484,544.7036,1023.1484,532.7036,1035.1484,190.0864,1035.1484,178.0864,1023.1484,190.0864,1011.1484" style="stroke:#181818;stroke-width:0.5;"/><text fill="#008000" font-family="sans-serif" font-size="14" lengthAdjust="spacing" textLength="24.1924" x="365.395" y="1048.1436">yes</text><text fill="#000000" font-family="sans-serif" font-size="14" lengthAdjust="spacing" textLength="161.0068" x="190.0864" y="1027.9951">All vertices adjacent to</text><text fill="#0000CD" font-family="sans-serif" font-size="14" font-weight="bold" lengthAdjust="spacing" textLength="9.9668" x="355.5435" y="1027.9951">u</text><text fill="#000000" font-family="sans-serif" font-size="14" lengthAdjust="spacing" textLength="162.7432" x="369.9604" y="1027.9951">have been considered?</text><text fill="#FF0000" font-family="sans-serif" font-size="14" lengthAdjust="spacing" textLength="17.4385" x="544.7036" y="1019.8467">no</text><polygon fill="#F1F1F1" points="361.395,370.0313,373.395,382.0313,361.395,394.0313,349.395,382.0313,361.395,370.0313" style="stroke:#181818;stroke-width:0.5;"/><polygon fill="#F1F1F1" points="253.9443,1075.1484,468.8457,1075.1484,480.8457,1087.1484,468.8457,1099.1484,253.9443,1099.1484,241.9443,1087.1484,253.9443,1075.1484" style="stroke:#181818;stroke-width:0.5;"/><text fill="#008000" font-family="sans-serif" font-size="14" lengthAdjust="spacing" textLength="24.1924" x="365.395" y="1112.1436">yes</text><text fill="#000000" font-family="sans-serif" font-size="14" lengthAdjust="spacing" textLength="38.8486" x="253.9443" y="1091.9951">Is the</text><text fill="#FF8C00" font-family="sans-serif" font-size="14" font-weight="bold" lengthAdjust="spacing" textLength="114.8096" x="297.2432" y="1091.9951">priority_queue</text><text fill="#000000" font-family="sans-serif" font-size="14" lengthAdjust="spacing" textLength="52.3428" x="416.5029" y="1091.9951">empty?</text><text fill="#FF0000" font-family="sans-serif" font-size="14" lengthAdjust="spacing" textLength="17.4385" x="480.8457" y="1083.8467">no</text><polygon fill="#F1F1F1" points="220.2773,1133.6436,502.5127,1133.6436,514.5127,1145.6436,502.5127,1157.6436,220.2773,1157.6436,208.2773,1145.6436,220.2773,1133.6436" style="stroke:#181818;stroke-width:0.5;"/><text fill="#000000" font-family="sans-serif" font-size="14" lengthAdjust="spacing" textLength="150.582" x="220.2773" y="1150.4902">Has the target vertex</text><text fill="#1E90FF" font-family="sans-serif" font-size="14" font-weight="bold" lengthAdjust="spacing" textLength="18.8672" x="375.3096" y="1150.4902">v2</text><text fill="#000000" font-family="sans-serif" font-size="14" lengthAdjust="spacing" textLength="103.8857" x="398.627" y="1150.4902">been reached?</text><text fill="#008000" font-family="sans-serif" font-size="14" lengthAdjust="spacing" textLength="24.1924" x="184.085" y="1142.3418">yes</text><text fill="#FF0000" font-family="sans-serif" font-size="14" lengthAdjust="spacing" textLength="17.4385" x="514.5127" y="1142.3418">no</text><rect fill="#F1F1F1" height="52.5938" style="stroke:#181818;stroke-width:0.5;" width="307.9775" x="44.2886" y="1167.6436"/><line style="stroke:#181818;stroke-width:0.5;" x1="49.2886" x2="49.2886" y1="1167.6436" y2="1220.2373"/><line style="stroke:#181818;stroke-width:0.5;" x1="347.2661" x2="347.2661" y1="1167.6436" y2="1220.2373"/><text fill="#000000" font-family="sans-serif" font-size="14" lengthAdjust="spacing" textLength="185.1172" x="54.2886" y="1190.6387">Reconstruct the path from</text><text fill="#1E90FF" font-family="sans-serif" font-size="14" font-weight="bold" lengthAdjust="spacing" textLength="18.8672" x="243.856" y="1190.6387">v2</text><text fill="#000000" font-family="sans-serif" font-size="14" lengthAdjust="spacing" textLength="51.7754" x="267.1733" y="1190.6387">back to</text><text fill="#DC143C" font-family="sans-serif" font-size="14" font-weight="bold" lengthAdjust="spacing" textLength="18.8672" x="323.3989" y="1190.6387">v1</text><text fill="#000000" font-family="sans-serif" font-size="14" lengthAdjust="spacing" textLength="70.7041" x="58.7388" y="1206.9355">(using the</text><text fill="#008080" font-family="sans-serif" font-size="14" font-weight="bold" lengthAdjust="spacing" textLength="96.9199" x="133.8931" y="1206.9355">predecessor</text><text fill="#000000" font-family="sans-serif" font-size="14" lengthAdjust="spacing" textLength="106.6611" x="235.2632" y="1206.9355">of each vertex)</text><rect fill="#F1F1F1" height="52.5938" style="stroke:#181818;stroke-width:0.5;" width="217.3809" x="89.5869" y="1255.2373"/><line style="stroke:#181818;stroke-width:0.5;" x1="94.5869" x2="94.5869" y1="1255.2373" y2="1307.8311"/><line style="stroke:#181818;stroke-width:0.5;" x1="301.9678" x2="301.9678" y1="1255.2373" y2="1307.8311"/><text fill="#000000" font-family="sans-serif" font-size="14" lengthAdjust="spacing" textLength="191.2695" x="99.5869" y="1278.2324">Reverse the created vector</text><text fill="#000000" font-family="sans-serif" font-size="14" lengthAdjust="spacing" textLength="197.3809" x="99.5869" y="1294.5293">to obtain the minimum path</text><polygon fill="#F1F1F1" points="106.7646,1327.8311,299.79,1327.8311,289.79,1380.4248,96.7646,1380.4248" style="stroke:#181818;stroke-width:0.5;"/><text fill="#000000" font-family="sans-serif" font-size="14" lengthAdjust="spacing" textLength="91.2666" x="106.7646" y="1350.8262">Compute the</text><text fill="#9932CC" font-family="sans-serif" font-size="14" font-weight="bold" lengthAdjust="spacing" textLength="87.3086" x="202.4814" y="1350.8262">lengthPath</text><text fill="#000000" font-family="sans-serif" font-size="14" lengthAdjust="spacing" textLength="37.8164" x="120.1152" y="1367.123">using</text><text fill="#808000" font-family="sans-serif" font-size="14" font-weight="bold" lengthAdjust="spacing" textLength="102.3818" x="162.3818" y="1367.123">matrWeights</text><polygon fill="#F1F1F1" points="98.7266,1400.4248,297.8281,1400.4248,307.8281,1426.7217,297.8281,1453.0186,98.7266,1453.0186" style="stroke:#181818;stroke-width:0.5;"/><text fill="#000000" font-family="sans-serif" font-size="14" lengthAdjust="spacing" textLength="179.1016" x="108.7266" y="1423.4199">Output the list of vertices</text><text fill="#000000" font-family="sans-serif" font-size="14" lengthAdjust="spacing" textLength="147.3555" x="135.4277" y="1439.7168">in the minimum path</text><rect fill="#F1F1F1" height="36.2969" rx="12.5" ry="12.5" style="stroke:#181818;stroke-width:0.5;" width="259.415" x="394.8052" y="1167.6436"/><text fill="#000000" font-family="sans-serif" font-size="14" lengthAdjust="spacing" textLength="239.415" x="404.8052" y="1190.6387">No minimum path has been found</text><ellipse cx="524.5127" cy="1266.2373" fill="none" rx="11" ry="11" style="stroke:#222222;stroke-width:1;"/><ellipse cx="524.5127" cy="1266.2373" fill="#222222" rx="6" ry="6" style="stroke:#222222;stroke-width:1;"/><ellipse cx="361.395" cy="1484.0186" fill="none" rx="11" ry="11" style="stroke:#222222;stroke-width:1;"/><ellipse cx="361.395" cy="1484.0186" fill="#222222" rx="6" ry="6" style="stroke:#222222;stroke-width:1;"/><line style="stroke:#181818;stroke-width:1;" x1="52.9141" x2="52.9141" y1="109.9434" y2="129.9434"/><polygon fill="#181818" points="48.9141,119.9434,52.9141,129.9434,56.9141,119.9434,52.9141,123.9434" style="stroke:#181818;stroke-width:1;"/><line style="stroke:#181818;stroke-width:1;" x1="178.5967" x2="178.5967" y1="109.9434" y2="129.9434"/><polygon fill="#181818" points="174.5967,119.9434,178.5967,129.9434,182.5967,119.9434,178.5967,123.9434" style="stroke:#181818;stroke-width:1;"/><line style="stroke:#181818;stroke-width:1;" x1="290.7988" x2="290.7988" y1="109.9434" y2="129.9434"/><polygon fill="#181818" points="286.7988,119.9434,290.7988,129.9434,294.7988,119.9434,290.7988,123.9434" style="stroke:#181818;stroke-width:1;"/><line style="stroke:#181818;stroke-width:1;" x1="367.666" x2="367.666" y1="109.9434" y2="129.9434"/><polygon fill="#181818" points="363.666,119.9434,367.666,129.9434,371.666,119.9434,367.666,123.9434" style="stroke:#181818;stroke-width:1;"/><line style="stroke:#181818;stroke-width:1;" x1="486.2905" x2="486.2905" y1="109.9434" y2="129.9434"/><polygon fill="#181818" points="482.2905,119.9434,486.2905,129.9434,490.2905,119.9434,486.2905,123.9434" style="stroke:#181818;stroke-width:1;"/><line style="stroke:#181818;stroke-width:1;" x1="639.1357" x2="639.1357" y1="109.9434" y2="129.9434"/><polygon fill="#181818" points="635.1357,119.9434,639.1357,129.9434,643.1357,119.9434,639.1357,123.9434" style="stroke:#181818;stroke-width:1;"/><line style="stroke:#181818;stroke-width:1;" x1="361.395" x2="361.395" y1="131.4434" y2="175.542"/><polygon fill="#181818" points="357.395,165.542,361.395,175.542,365.395,165.542,361.395,169.542" style="stroke:#181818;stroke-width:1;"/><text fill="#000000" font-family="sans-serif" font-size="14" lengthAdjust="spacing" textLength="213.8555" x="365.395" y="154.7402">Passing arguments to function</text><line style="stroke:#181818;stroke-width:1;" x1="361.395" x2="361.395" y1="211.8389" y2="231.8389"/><polygon fill="#181818" points="357.395,221.8389,361.395,231.8389,365.395,221.8389,361.395,225.8389" style="stroke:#181818;stroke-width:1;"/><line style="stroke:#181818;stroke-width:1;" x1="361.395" x2="361.395" y1="268.1357" y2="313.7344"/><polygon fill="#181818" points="357.395,303.7344,361.395,313.7344,365.395,303.7344,361.395,307.7344" style="stroke:#181818;stroke-width:1;"/><text fill="#000000" font-family="sans-serif" font-size="14" lengthAdjust="spacing" textLength="87.2881" x="365.395" y="292.9326">Creating the</text><text fill="#FF8C00" font-family="sans-serif" font-size="14" font-weight="bold" lengthAdjust="spacing" textLength="114.8096" x="457.1333" y="292.9326">priority_queue</text><line style="stroke:#181818;stroke-width:1;" x1="361.395" x2="361.395" y1="536.9219" y2="563.0703"/><polygon fill="#181818" points="357.395,553.0703,361.395,563.0703,365.395,553.0703,361.395,557.0703" style="stroke:#181818;stroke-width:1;"/><line style="stroke:#181818;stroke-width:1;" x1="577.0376" x2="589.0376" y1="524.9219" y2="524.9219"/><polygon fill="#181818" points="585.0376,571.2188,589.0376,581.2188,593.0376,571.2188,589.0376,575.2188" style="stroke:#181818;stroke-width:1;"/><line style="stroke:#181818;stroke-width:1;" x1="589.0376" x2="589.0376" y1="524.9219" y2="631.3672"/><line style="stroke:#181818;stroke-width:1;" x1="589.0376" x2="373.395" y1="631.3672" y2="631.3672"/><polygon fill="#181818" points="383.395,627.3672,373.395,631.3672,383.395,635.3672,379.395,631.3672" style="stroke:#181818;stroke-width:1;"/><line style="stroke:#181818;stroke-width:1;" x1="361.395" x2="361.395" y1="599.3672" y2="619.3672"/><polygon fill="#181818" points="357.395,609.3672,361.395,619.3672,365.395,609.3672,361.395,613.3672" style="stroke:#181818;stroke-width:1;"/><line style="stroke:#181818;stroke-width:1;" x1="361.395" x2="361.395" y1="492.9219" y2="512.9219"/><polygon fill="#181818" points="357.395,502.9219,361.395,512.9219,365.395,502.9219,361.395,506.9219" style="stroke:#181818;stroke-width:1;"/><line style="stroke:#181818;stroke-width:1;" x1="181.2524" x2="181.2524" y1="820.2578" y2="840.2578"/><polygon fill="#181818" points="177.2524,830.2578,181.2524,840.2578,185.2524,830.2578,181.2524,834.2578" style="stroke:#181818;stroke-width:1;"/><line style="stroke:#181818;stroke-width:1;" x1="181.2524" x2="181.2524" y1="876.5547" y2="896.5547"/><polygon fill="#181818" points="177.2524,886.5547,181.2524,896.5547,185.2524,886.5547,181.2524,890.5547" style="stroke:#181818;stroke-width:1;"/><line style="stroke:#181818;stroke-width:1;" x1="191.2524" x2="181.2524" y1="745.6641" y2="745.6641"/><line style="stroke:#181818;stroke-width:1;" x1="181.2524" x2="181.2524" y1="745.6641" y2="767.6641"/><polygon fill="#181818" points="177.2524,757.6641,181.2524,767.6641,185.2524,757.6641,181.2524,761.6641" style="stroke:#181818;stroke-width:1;"/><line style="stroke:#181818;stroke-width:1;" x1="531.5376" x2="541.5376" y1="745.6641" y2="745.6641"/><line style="stroke:#181818;stroke-width:1;" x1="541.5376" x2="541.5376" y1="745.6641" y2="767.6641"/><polygon fill="#181818" points="537.5376,757.6641,541.5376,767.6641,545.5376,757.6641,541.5376,761.6641" style="stroke:#181818;stroke-width:1;"/><line style="stroke:#181818;stroke-width:1;" x1="181.2524" x2="181.2524" y1="949.1484" y2="967.1484"/><line style="stroke:#181818;stroke-width:1;" x1="181.2524" x2="349.395" y1="967.1484" y2="967.1484"/><polygon fill="#181818" points="339.395,963.1484,349.395,967.1484,339.395,971.1484,343.395,967.1484" style="stroke:#181818;stroke-width:1;"/><line style="stroke:#181818;stroke-width:1;" x1="541.5376" x2="541.5376" y1="803.9609" y2="967.1484"/><line style="stroke:#181818;stroke-width:1;" x1="541.5376" x2="373.395" y1="967.1484" y2="967.1484"/><polygon fill="#181818" points="383.395,963.1484,373.395,967.1484,383.395,971.1484,379.395,967.1484" style="stroke:#181818;stroke-width:1;"/><line style="stroke:#181818;stroke-width:1;" x1="361.395" x2="361.395" y1="687.3672" y2="733.6641"/><polygon fill="#181818" points="357.395,723.6641,361.395,733.6641,365.395,723.6641,361.395,727.6641" style="stroke:#181818;stroke-width:1;"/><line style="stroke:#181818;stroke-width:1;" x1="544.7036" x2="613.9746" y1="1023.1484" y2="1023.1484"/><polygon fill="#181818" points="609.9746,858.2578,613.9746,848.2578,617.9746,858.2578,613.9746,854.2578" style="stroke:#181818;stroke-width:1;"/><line style="stroke:#181818;stroke-width:1;" x1="613.9746" x2="613.9746" y1="675.3672" y2="1023.1484"/><line style="stroke:#181818;stroke-width:1;" x1="613.9746" x2="373.395" y1="675.3672" y2="675.3672"/><polygon fill="#181818" points="383.395,671.3672,373.395,675.3672,383.395,679.3672,379.395,675.3672" style="stroke:#181818;stroke-width:1;"/><line style="stroke:#181818;stroke-width:1;" x1="361.395" x2="361.395" y1="979.1484" y2="1011.1484"/><polygon fill="#181818" points="357.395,1001.1484,361.395,1011.1484,365.395,1001.1484,361.395,1005.1484" style="stroke:#181818;stroke-width:1;"/><line style="stroke:#181818;stroke-width:1;" x1="361.395" x2="361.395" y1="643.3672" y2="663.3672"/><polygon fill="#181818" points="357.395,653.3672,361.395,663.3672,365.395,653.3672,361.395,657.3672" style="stroke:#181818;stroke-width:1;"/><line style="stroke:#181818;stroke-width:1;" x1="361.395" x2="361.395" y1="394.0313" y2="440.3281"/><polygon fill="#181818" points="357.395,430.3281,361.395,440.3281,365.395,430.3281,361.395,434.3281" style="stroke:#181818;stroke-width:1;"/><line style="stroke:#181818;stroke-width:1;" x1="480.8457" x2="647.9746" y1="1087.1484" y2="1087.1484"/><polygon fill="#181818" points="643.9746,735.5156,647.9746,725.5156,651.9746,735.5156,647.9746,731.5156" style="stroke:#181818;stroke-width:1;"/><line style="stroke:#181818;stroke-width:1;" x1="647.9746" x2="647.9746" y1="382.0313" y2="1087.1484"/><line style="stroke:#181818;stroke-width:1;" x1="647.9746" x2="373.395" y1="382.0313" y2="382.0313"/><polygon fill="#181818" points="383.395,378.0313,373.395,382.0313,383.395,386.0313,379.395,382.0313" style="stroke:#181818;stroke-width:1;"/><line style="stroke:#181818;stroke-width:1;" x1="361.395" x2="361.395" y1="1035.1484" y2="1075.1484"/><polygon fill="#181818" points="357.395,1065.1484,361.395,1075.1484,365.395,1065.1484,361.395,1069.1484" style="stroke:#181818;stroke-width:1;"/><line style="stroke:#181818;stroke-width:1;" x1="361.395" x2="361.395" y1="350.0313" y2="370.0313"/><polygon fill="#181818" points="357.395,360.0313,361.395,370.0313,365.395,360.0313,361.395,364.0313" style="stroke:#181818;stroke-width:1;"/><line style="stroke:#181818;stroke-width:1;" x1="198.2773" x2="198.2773" y1="1220.2373" y2="1255.2373"/><polygon fill="#181818" points="194.2773,1245.2373,198.2773,1255.2373,202.2773,1245.2373,198.2773,1249.2373" style="stroke:#181818;stroke-width:1;"/><line style="stroke:#181818;stroke-width:1;" x1="198.2773" x2="198.2773" y1="1307.8311" y2="1327.8311"/><polygon fill="#181818" points="194.2773,1317.8311,198.2773,1327.8311,202.2773,1317.8311,198.2773,1321.8311" style="stroke:#181818;stroke-width:1;"/><line style="stroke:#181818;stroke-width:1;" x1="198.2773" x2="198.2773" y1="1380.4248" y2="1400.4248"/><polygon fill="#181818" points="194.2773,1390.4248,198.2773,1400.4248,202.2773,1390.4248,198.2773,1394.4248" style="stroke:#181818;stroke-width:1;"/><line style="stroke:#181818;stroke-width:1;" x1="524.5127" x2="524.5127" y1="1203.9404" y2="1255.2373"/><polygon fill="#181818" points="520.5127,1245.2373,524.5127,1255.2373,528.5127,1245.2373,524.5127,1249.2373" style="stroke:#181818;stroke-width:1;"/><text fill="#000000" font-family="sans-serif" font-size="14" lengthAdjust="spacing" textLength="189.1025" x="528.5127" y="1234.4355">Returning an empty vector</text><line style="stroke:#181818;stroke-width:1;" x1="208.2773" x2="198.2773" y1="1145.6436" y2="1145.6436"/><line style="stroke:#181818;stroke-width:1;" x1="198.2773" x2="198.2773" y1="1145.6436" y2="1167.6436"/><polygon fill="#181818" points="194.2773,1157.6436,198.2773,1167.6436,202.2773,1157.6436,198.2773,1161.6436" style="stroke:#181818;stroke-width:1;"/><line style="stroke:#181818;stroke-width:1;" x1="514.5127" x2="524.5127" y1="1145.6436" y2="1145.6436"/><line style="stroke:#181818;stroke-width:1;" x1="524.5127" x2="524.5127" y1="1145.6436" y2="1167.6436"/><polygon fill="#181818" points="520.5127,1157.6436,524.5127,1167.6436,528.5127,1157.6436,524.5127,1161.6436" style="stroke:#181818;stroke-width:1;"/><line style="stroke:#181818;stroke-width:1;" x1="198.2773" x2="198.2773" y1="1453.0186" y2="1458.0186"/><line style="stroke:#181818;stroke-width:1;" x1="198.2773" x2="361.395" y1="1458.0186" y2="1458.0186"/><line style="stroke:#181818;stroke-width:1;" x1="361.395" x2="361.395" y1="1458.0186" y2="1473.0186"/><polygon fill="#181818" points="357.395,1463.0186,361.395,1473.0186,365.395,1463.0186,361.395,1467.0186" style="stroke:#181818;stroke-width:1;"/><line style="stroke:#181818;stroke-width:1;" x1="361.395" x2="361.395" y1="1099.1484" y2="1133.6436"/><polygon fill="#181818" points="357.395,1123.6436,361.395,1133.6436,365.395,1123.6436,361.395,1127.6436" style="stroke:#181818;stroke-width:1;"/><!--SRC=[fLPDR-Cs4BthLn3enGwGHdQIZUCOB69vZIwmI1T9YnwAOi6LnX9ZcLJvuTIxo7_laB8ToLOKk_599ZbltWpd3MUapIe76XHC6Mwu53y2WhzxQKKIIIL0aQlWES3zUCvIQDfrAv-vW4ZcKf6VFeoZ_lJMhuxHA5NbORytZZvUJgVFmUXixLRFkK3NR44Ic36RcwaKve5_1zAxg6mYjHpSrXrR07a0nMTDkwNXO7ThB5K2ggGmpf5Jyu7VCnxF1MXD-iq7gc7tmi3la0b_d6kZMA2Bd1iVzkbV6KyI47-VKlz_o9B7proR6p8Q8Qmrb9Qd2KiP5yqs9oUZk4pQnLLu_M502vclCaYK5ACplqDFJluduYJgNPn7TDbxDrBlutKudT9b_zr8Wt0GXY5TCAF-19vcHhyRylhwl1z5D0UHckmBCrap8eY4b9TtIiaNfZKNAM4gjGiGHXCZoSoAs6dZ9XX-4gWIblFlxf39W2mXDb9fyk8skkfT3YvfWZVEH0mlJWb3Jo_dmj35J0i52SHOTbBL-HccvqWl63w0CHjtMbeLEw_AmB_apIlTO61aaGAsXNand4u7KUXOSAcuMNtznuAjS6uA-N3Z2WC51VhtLxJjDUJUBpfSAmpFZqCdN1DO56P5oguqd80_uL5cN6cpdoOiiJ2QK5j54KUwjRv0lCiHfpyRMNIwepDE_VMwbQAsejdIdUTOIfkI83Cb5-sNHvXsMCxYgtLOBfU5aZ4aLW4jQvtFIETNFCY8pYH6gWwgmex9cAY3TmdBiJoI5Va68CZCDRfVkYulWdHAn26MALs1xfQvZh7TSc71qLf_IwlNl23NiBLB5K9I8Kj351lsRlTLAOXwKTp1q_x5eP8dvttwLCrGyiXYbAXJQEiD_zWwsIHjetAJuUkKPktcALz2DSS5TfAwptrokyahax1Dt-Ot_AD8c86T0dpzwjxmIchWJzpnH6Gf04aV7d5JgMqPOpDgJnVMOpsSjZv7vAmrebOgjqdYNLcVnEJG3A993OSShNqlSgkpKkLj76jAS0hQw60RHAkGjZ1RrRZVSqK_v2dZE8LqRlFSYuR7hbOFLKR6bb1A7brhZZCEEDrZOztXJ8GqhnNpSr2dyaaVsL1z4p_ARR3fVCwHmRSQ6dfzmsnInegTBiuWQT7ey1vSGeooiV4-lEPtkdOZFawNzQmtzFQ0TApUVqpVqebZlOwokrjpI1XtTDb9OlVIenxAqOG4o4T-Cspzq2suu0kxy27jmKHoWKFHRaDg6QHS1PJ173xAuOledVrc3Jhpld9KgejnKyBhMd-5ilI6RdHhajVmJjOiiCfrvLsxSSFGFHYhX1_qn7g8ABDr4sXyq8DISFxxFm00]--></g></svg>