<svg xmlns="http://www.w3.org/2000/svg" xmlns:xlink="http://www.w3.org/1999/xlink" contentStyleType="text/css" data-diagram-type="ACTIVITY" height="1558px" preserveAspectRatio="none" style="width:733px;height:1558px;background:#FFFFFF;" version="1.1" viewBox="0 0 733 1558" width="733px" zoomAndPan="magnify"><title>GEOPolyhedron.FindFaces()</title><defs/><g><g class="title" data-source-line="16"><rect fill="none" height="31.1465" rx="5" ry="5" style="stroke:#000000;stroke-width:2;" width="294.8887" x="217.8218" y="15"/><text fill="#000000" font-family="Serif" font-size="18" font-weight="bold" lengthAdjust="spacing" textLength="284.8887" x="222.8218" y="36.9014">GEOPolyhedron.FindFaces()</text></g><line style="stroke:none;stroke-width:1.5;" x1="90.9082" x2="607.0674" y1="52.1465" y2="52.1465"/><polygon fill="#F1F1F1" points="20,73.6465,171.8164,73.6465,161.8164,91.7949,171.8164,109.9434,20,109.9434" style="stroke:#181818;stroke-width:0.5;"/><text fill="#A70E18" font-family="sans-serif" font-size="14" font-weight="bold" lengthAdjust="spacing" textLength="121.8164" x="30" y="96.6416">verticesOnFace</text><polygon fill="#F1F1F1" points="199.8164,73.6465,320.6182,73.6465,310.6182,91.7949,320.6182,109.9434,199.8164,109.9434" style="stroke:#181818;stroke-width:0.5;"/><text fill="#0B91D5" font-family="sans-serif" font-size="14" font-weight="bold" lengthAdjust="spacing" textLength="90.8018" x="209.8164" y="96.6416">facesFound</text><polygon fill="#F1F1F1" points="348.6182,73.6465,484.6025,73.6465,474.6025,91.7949,484.6025,109.9434,348.6182,109.9434" style="stroke:#181818;stroke-width:0.5;"/><text fill="#13463D" font-family="sans-serif" font-size="14" font-weight="bold" lengthAdjust="spacing" textLength="105.9844" x="358.6182" y="96.6416">vecVertFaces</text><polygon fill="#F1F1F1" points="512.6025,73.6465,711.5322,73.6465,701.5322,91.7949,711.5322,109.9434,512.6025,109.9434" style="stroke:#181818;stroke-width:0.5;"/><text fill="#4D018F" font-family="sans-serif" font-size="14" font-weight="bold" lengthAdjust="spacing" textLength="168.9297" x="522.6025" y="96.6416">numAdjacentVertices</text><line style="stroke:#181818;stroke-width:1.5;" x1="90.9082" x2="607.0674" y1="129.9434" y2="129.9434"/><path d="M143.4702,173.6904 L331.0122,173.6904 A5.25,5.25 0 0 1 334.5122,177.1904 L341.5122,195.9873 L588.062,195.9873 A3.5,3.5 0 0 1 591.562,199.4873 L591.562,262.7842 A3.5,3.5 0 0 1 588.062,266.2842 L143.4702,266.2842 A3.5,3.5 0 0 1 139.9702,262.7842 L139.9702,177.1904 A3.5,3.5 0 0 1 143.4702,173.6904" fill="#BCE5FF" style="stroke:#000000;stroke-width:1.5;"/><line style="stroke:#000000;stroke-width:1.5;" x1="139.9702" x2="341.5122" y1="195.9873" y2="195.9873"/><text fill="#000000" font-family="sans-serif" font-size="14" font-weight="bold" lengthAdjust="spacing" textLength="122.7324" x="143.9702" y="188.6855">GEOPolyhedron</text><text fill="#000000" font-family="sans-serif" font-size="14" lengthAdjust="spacing" textLength="61.3594" x="271.1528" y="188.6855">methods</text><rect fill="#F1F1F1" height="36.2969" style="stroke:#181818;stroke-width:0.5;" width="431.5918" x="149.9702" y="209.9873"/><line style="stroke:#181818;stroke-width:0.5;" x1="154.9702" x2="154.9702" y1="209.9873" y2="246.2842"/><line style="stroke:#181818;stroke-width:0.5;" x1="576.562" x2="576.562" y1="209.9873" y2="246.2842"/><text fill="#000000" font-family="sans-serif" font-size="14" font-style="italic" lengthAdjust="spacing" textLength="106.4834" x="159.9702" y="232.9824">.AdjacencyList(</text><text fill="#A70E18" font-family="sans-serif" font-size="14" font-style="italic" font-weight="bold" lengthAdjust="spacing" textLength="121.8164" x="266.4536" y="232.9824">verticesOnFace</text><text fill="#000000" font-family="sans-serif" font-size="14" font-style="italic" lengthAdjust="spacing" textLength="4.4502" x="388.27" y="232.9824">,</text><text fill="#4D018F" font-family="sans-serif" font-size="14" font-style="italic" font-weight="bold" lengthAdjust="spacing" textLength="168.9297" x="397.1704" y="232.9824">numAdjacentVertices</text><text fill="#000000" font-family="sans-serif" font-size="14" font-style="italic" lengthAdjust="spacing" textLength="5.4619" x="566.1001" y="232.9824">)</text><polygon fill="#F1F1F1" points="268.8291,286.2842,462.7031,286.2842,474.7031,298.2842,462.7031,310.2842,268.8291,310.2842,256.8291,298.2842,268.8291,286.2842" style="stroke:#181818;stroke-width:0.5;"/><text fill="#A70E18" font-family="sans-serif" font-size="14" font-weight="bold" lengthAdjust="spacing" textLength="121.8164" x="268.8291" y="303.1309">verticesOnFace</text><text fill="#000000" font-family="sans-serif" font-size="14" lengthAdjust="spacing" textLength="72.0576" x="390.6455" y="303.1309">.size() &gt; 0</text><text fill="#000000" font-family="sans-serif" font-size="14" lengthAdjust="spacing" textLength="24.1924" x="232.6367" y="294.9824">yes</text><text fill="#000000" font-family="sans-serif" font-size="14" lengthAdjust="spacing" textLength="17.4385" x="474.7031" y="294.9824">no</text><rect fill="#F1F1F1" height="36.2969" rx="12.5" ry="12.5" style="stroke:#181818;stroke-width:0.5;" width="320.7881" x="50.781" y="320.2842"/><text fill="#000000" font-family="sans-serif" font-size="14" lengthAdjust="spacing" textLength="132.002" x="60.781" y="343.2793">verticesToCheck =</text><text fill="#A70E18" font-family="sans-serif" font-size="14" font-weight="bold" lengthAdjust="spacing" textLength="121.8164" x="197.2332" y="343.2793">verticesOnFace</text><text fill="#000000" font-family="sans-serif" font-size="14" lengthAdjust="spacing" textLength="42.5195" x="319.0496" y="343.2793">.size()</text><rect fill="#F1F1F1" height="36.2969" rx="12.5" ry="12.5" style="stroke:#181818;stroke-width:0.5;" width="257.5762" x="391.5691" y="320.2842"/><text fill="#000000" font-family="sans-serif" font-size="14" lengthAdjust="spacing" textLength="132.002" x="401.5691" y="343.2793">verticesToCheck =</text><text fill="#022839" font-family="sans-serif" font-size="14" font-weight="bold" lengthAdjust="spacing" textLength="101.124" x="538.0212" y="343.2793">NumVertices</text><polygon fill="#F1F1F1" points="365.7661,362.5811,377.7661,374.5811,365.7661,386.5811,353.7661,374.5811,365.7661,362.5811" style="stroke:#181818;stroke-width:0.5;"/><polygon fill="#F1F1F1" points="289.0781,450.5811,432.4541,450.5811,442.4541,486.8779,299.0781,486.8779" style="stroke:#181818;stroke-width:0.5;"/><text fill="#000000" font-family="sans-serif" font-size="14" lengthAdjust="spacing" textLength="133.376" x="299.0781" y="473.5762">Access next vertex</text><polygon fill="#F1F1F1" points="292.437,506.8779,449.0952,506.8779,439.0952,543.1748,282.437,543.1748" style="stroke:#181818;stroke-width:0.5;"/><text fill="#000000" font-family="sans-serif" font-size="14" lengthAdjust="spacing" textLength="68.5166" x="292.437" y="529.873">Save it as</text><text fill="#000000" font-family="sans-serif" font-size="14" font-style="italic" lengthAdjust="spacing" textLength="73.6914" x="365.4038" y="529.873">firstVertex</text><polygon fill="#F1F1F1" points="289.0781,607.1748,432.4541,607.1748,442.4541,643.4717,299.0781,643.4717" style="stroke:#181818;stroke-width:0.5;"/><text fill="#000000" font-family="sans-serif" font-size="14" lengthAdjust="spacing" textLength="133.376" x="299.0781" y="630.1699">Access next vertex</text><polygon fill="#F1F1F1" points="281.1509,663.4717,460.3813,663.4717,450.3813,699.7686,271.1509,699.7686" style="stroke:#181818;stroke-width:0.5;"/><text fill="#000000" font-family="sans-serif" font-size="14" lengthAdjust="spacing" textLength="68.5166" x="281.1509" y="686.4668">Save it as</text><text fill="#000000" font-family="sans-serif" font-size="14" font-style="italic" lengthAdjust="spacing" textLength="96.2637" x="354.1177" y="686.4668">secondVertex</text><polygon fill="#F1F1F1" points="289.0781,763.7686,432.4541,763.7686,442.4541,800.0654,299.0781,800.0654" style="stroke:#181818;stroke-width:0.5;"/><text fill="#000000" font-family="sans-serif" font-size="14" lengthAdjust="spacing" textLength="133.376" x="299.0781" y="786.7637">Access next vertex</text><polygon fill="#F1F1F1" points="289.6685,820.0654,451.8638,820.0654,441.8638,856.3623,279.6685,856.3623" style="stroke:#181818;stroke-width:0.5;"/><text fill="#000000" font-family="sans-serif" font-size="14" lengthAdjust="spacing" textLength="68.5166" x="289.6685" y="843.0605">Save it as</text><text fill="#000000" font-family="sans-serif" font-size="14" font-style="italic" lengthAdjust="spacing" textLength="79.2285" x="362.6353" y="843.0605">thirdVertex</text><polygon fill="#F1F1F1" points="265.4897,877.6592,466.0425,877.6592,478.0425,893.9561,466.0425,910.2529,265.4897,910.2529,253.4897,893.9561,265.4897,877.6592" style="stroke:#181818;stroke-width:0.5;"/><text fill="#000000" font-family="sans-serif" font-size="14" lengthAdjust="spacing" textLength="194.5439" x="265.4897" y="890.6543">Does the edge between the</text><text fill="#000000" font-family="sans-serif" font-size="14" lengthAdjust="spacing" textLength="196.1025" x="269.9399" y="906.9512">two adjacent vertices exist?</text><text fill="#008000" font-family="sans-serif" font-size="14" lengthAdjust="spacing" textLength="24.1924" x="229.2974" y="890.6543">yes</text><text fill="#FF0000" font-family="sans-serif" font-size="14" lengthAdjust="spacing" textLength="17.4385" x="478.0425" y="890.6543">no</text><rect fill="#F1F1F1" height="36.2969" rx="12.5" ry="12.5" style="stroke:#181818;stroke-width:0.5;" width="227.7988" x="92.9121" y="920.2529"/><text fill="#000000" font-family="sans-serif" font-size="14" lengthAdjust="spacing" textLength="165.3203" x="102.9121" y="943.248">Sort face vertices using</text><text fill="#000000" font-family="sans-serif" font-size="14" font-style="italic" lengthAdjust="spacing" textLength="38.0283" x="272.6826" y="943.248">sort()</text><polygon fill="#F1F1F1" points="118.4434,981.5498,295.1797,981.5498,307.1797,997.8467,295.1797,1014.1436,118.4434,1014.1436,106.4434,997.8467,118.4434,981.5498" style="stroke:#181818;stroke-width:0.5;"/><text fill="#000000" font-family="sans-serif" font-size="14" lengthAdjust="spacing" textLength="149.1191" x="127.3438" y="994.5449">The face was already</text><text fill="#000000" font-family="sans-serif" font-size="14" lengthAdjust="spacing" textLength="58.8711" x="118.4434" y="1010.8418">saved in</text><text fill="#13463D" font-family="sans-serif" font-size="14" font-weight="bold" lengthAdjust="spacing" textLength="105.9844" x="181.7646" y="1010.8418">vecVertFaces</text><text fill="#000000" font-family="sans-serif" font-size="14" lengthAdjust="spacing" textLength="7.4307" x="287.749" y="1010.8418">?</text><text fill="#FF0000" font-family="sans-serif" font-size="14" lengthAdjust="spacing" textLength="24.1924" x="82.251" y="994.5449">yes</text><text fill="#008000" font-family="sans-serif" font-size="14" lengthAdjust="spacing" textLength="17.4385" x="307.1797" y="994.5449">no</text><path d="M61.0063,1024.1436 L56.0063,1042.292 L61.0063,1060.4404 M131.8804,1024.1436 L136.8804,1042.292 L131.8804,1060.4404" fill="#F1F1F1" style="stroke:#181818;stroke-width:0.5;"/><text fill="#000000" font-family="sans-serif" font-size="14" lengthAdjust="spacing" textLength="60.874" x="66.0063" y="1047.1387">continue</text><polygon fill="#F1F1F1" points="190.0757,1024.1436,454.2837,1024.1436,444.2837,1076.7373,180.0757,1076.7373" style="stroke:#181818;stroke-width:0.5;"/><text fill="#000000" font-family="sans-serif" font-size="14" lengthAdjust="spacing" textLength="85.8457" x="212.3267" y="1047.1387">Save face in</text><text fill="#000000" font-family="sans-serif" font-size="14" font-weight="bold" lengthAdjust="spacing" textLength="107.8096" x="302.6226" y="1047.1387">ListVertFaces</text><text fill="#000000" font-family="sans-serif" font-size="14" lengthAdjust="spacing" textLength="4.4502" x="410.4321" y="1047.1387">,</text><text fill="#000000" font-family="sans-serif" font-size="14" font-weight="bold" lengthAdjust="spacing" textLength="112.9844" x="190.0757" y="1063.4355">ListEdgeFaces</text><text fill="#000000" font-family="sans-serif" font-size="14" lengthAdjust="spacing" textLength="26.3389" x="307.5103" y="1063.4355">and</text><text fill="#13463D" font-family="sans-serif" font-size="14" font-weight="bold" lengthAdjust="spacing" textLength="105.9844" x="338.2993" y="1063.4355">vecVertFaces</text><rect fill="#F1F1F1" height="36.2969" style="stroke:#181818;stroke-width:0.5;" width="174.8066" x="229.7764" y="1096.7373"/><text fill="#000000" font-family="sans-serif" font-size="14" lengthAdjust="spacing" textLength="59.5547" x="239.7764" y="1119.7324">Increase</text><text fill="#0B91D5" font-family="sans-serif" font-size="14" font-weight="bold" lengthAdjust="spacing" textLength="90.8018" x="303.7813" y="1119.7324">facesFound</text><polygon fill="#F1F1F1" points="206.8115,1139.0342,218.8115,1151.0342,206.8115,1163.0342,194.8115,1151.0342,206.8115,1139.0342" style="stroke:#181818;stroke-width:0.5;"/><path d="M489.2837,920.2529 L484.2837,938.4014 L489.2837,956.5498 M560.1577,920.2529 L565.1577,938.4014 L560.1577,956.5498" fill="#F1F1F1" style="stroke:#181818;stroke-width:0.5;"/><text fill="#000000" font-family="sans-serif" font-size="14" lengthAdjust="spacing" textLength="60.874" x="494.2837" y="943.248">continue</text><polygon fill="#F1F1F1" points="365.7661,1169.0342,377.7661,1181.0342,365.7661,1193.0342,353.7661,1181.0342,365.7661,1169.0342" style="stroke:#181818;stroke-width:0.5;"/><polygon fill="#F1F1F1" points="365.7661,719.7686,377.7661,731.7686,365.7661,743.7686,353.7661,731.7686,365.7661,719.7686" style="stroke:#181818;stroke-width:0.5;"/><polygon fill="#F1F1F1" points="131.772,1213.0342,599.7603,1213.0342,611.7603,1225.0342,599.7603,1237.0342,131.772,1237.0342,119.772,1225.0342,131.772,1213.0342" style="stroke:#181818;stroke-width:0.5;"/><text fill="#008000" font-family="sans-serif" font-size="14" lengthAdjust="spacing" textLength="24.1924" x="369.7661" y="1250.0293">yes</text><text fill="#000000" font-family="sans-serif" font-size="14" lengthAdjust="spacing" textLength="467.9883" x="131.772" y="1229.8809">Did it go through all the other vertices of the vertexAdjacencyList?</text><text fill="#FF0000" font-family="sans-serif" font-size="14" lengthAdjust="spacing" textLength="17.4385" x="611.7603" y="1221.7324">no</text><polygon fill="#F1F1F1" points="365.7661,563.1748,377.7661,575.1748,365.7661,587.1748,353.7661,575.1748,365.7661,563.1748" style="stroke:#181818;stroke-width:0.5;"/><polygon fill="#F1F1F1" points="152.6455,1271.5293,578.8867,1271.5293,590.8867,1283.5293,578.8867,1295.5293,152.6455,1295.5293,140.6455,1283.5293,152.6455,1271.5293" style="stroke:#181818;stroke-width:0.5;"/><text fill="#008000" font-family="sans-serif" font-size="14" lengthAdjust="spacing" textLength="24.1924" x="369.7661" y="1308.5244">yes</text><text fill="#000000" font-family="sans-serif" font-size="14" lengthAdjust="spacing" textLength="426.2412" x="152.6455" y="1288.376">Did it go through all the vertices of the vertexAdjacencyList?</text><text fill="#FF0000" font-family="sans-serif" font-size="14" lengthAdjust="spacing" textLength="17.4385" x="590.8867" y="1280.2275">no</text><polygon fill="#F1F1F1" points="365.7661,406.5811,377.7661,418.5811,365.7661,430.5811,353.7661,418.5811,365.7661,406.5811" style="stroke:#181818;stroke-width:0.5;"/><polygon fill="#F1F1F1" points="218.2705,1330.0244,513.2617,1330.0244,525.2617,1342.0244,513.2617,1354.0244,218.2705,1354.0244,206.2705,1342.0244,218.2705,1330.0244" style="stroke:#181818;stroke-width:0.5;"/><text fill="#008000" font-family="sans-serif" font-size="14" lengthAdjust="spacing" textLength="24.1924" x="369.7661" y="1367.0195">yes</text><text fill="#000000" font-family="sans-serif" font-size="14" lengthAdjust="spacing" textLength="294.9912" x="218.2705" y="1346.8711">Did it go through all the verticesToCheck?</text><text fill="#FF0000" font-family="sans-serif" font-size="14" lengthAdjust="spacing" textLength="17.4385" x="525.2617" y="1338.7227">no</text><polygon fill="#F1F1F1" points="268.8291,1388.5195,462.7031,1388.5195,474.7031,1400.5195,462.7031,1412.5195,268.8291,1412.5195,256.8291,1400.5195,268.8291,1388.5195" style="stroke:#181818;stroke-width:0.5;"/><text fill="#A70E18" font-family="sans-serif" font-size="14" font-weight="bold" lengthAdjust="spacing" textLength="121.8164" x="268.8291" y="1405.3662">verticesOnFace</text><text fill="#000000" font-family="sans-serif" font-size="14" lengthAdjust="spacing" textLength="72.0576" x="390.6455" y="1405.3662">.size() &gt; 0</text><text fill="#000000" font-family="sans-serif" font-size="14" lengthAdjust="spacing" textLength="24.1924" x="232.6367" y="1397.2178">yes</text><text fill="#000000" font-family="sans-serif" font-size="14" lengthAdjust="spacing" textLength="17.4385" x="474.7031" y="1397.2178">no</text><rect fill="#F1F1F1" height="52.5938" rx="12.5" ry="12.5" style="stroke:#181818;stroke-width:0.5;" width="220.4229" x="136.6177" y="1422.5195"/><text fill="#000000" font-family="sans-serif" font-size="14" lengthAdjust="spacing" textLength="187.8721" x="155.5181" y="1445.5146">All the faces on the face of</text><text fill="#000000" font-family="sans-serif" font-size="14" lengthAdjust="spacing" textLength="22.9756" x="146.6177" y="1461.8115">the</text><text fill="#470968" font-family="sans-serif" font-size="14" font-weight="bold" lengthAdjust="spacing" textLength="89.5371" x="174.0435" y="1461.8115">polyhedron</text><text fill="#000000" font-family="sans-serif" font-size="14" lengthAdjust="spacing" textLength="79.0098" x="268.0308" y="1461.8115">were found</text><rect fill="#F1F1F1" height="52.5938" rx="12.5" ry="12.5" style="stroke:#181818;stroke-width:0.5;" width="192.9971" x="388.2046" y="1422.5195"/><text fill="#000000" font-family="sans-serif" font-size="14" lengthAdjust="spacing" textLength="131.7148" x="420.4556" y="1445.5146">All the faces of the</text><text fill="#470968" font-family="sans-serif" font-size="14" font-weight="bold" lengthAdjust="spacing" textLength="89.5371" x="398.2046" y="1461.8115">polyhedron</text><text fill="#000000" font-family="sans-serif" font-size="14" lengthAdjust="spacing" textLength="79.0098" x="492.1919" y="1461.8115">were found</text><polygon fill="#F1F1F1" points="365.7661,1481.1133,377.7661,1493.1133,365.7661,1505.1133,353.7661,1493.1133,365.7661,1481.1133" style="stroke:#181818;stroke-width:0.5;"/><ellipse cx="365.7661" cy="1536.1133" fill="none" rx="11" ry="11" style="stroke:#222222;stroke-width:1;"/><ellipse cx="365.7661" cy="1536.1133" fill="#222222" rx="6" ry="6" style="stroke:#222222;stroke-width:1;"/><line style="stroke:#181818;stroke-width:1;" x1="90.9082" x2="90.9082" y1="109.9434" y2="129.9434"/><polygon fill="#181818" points="86.9082,119.9434,90.9082,129.9434,94.9082,119.9434,90.9082,123.9434" style="stroke:#181818;stroke-width:1;"/><line style="stroke:#181818;stroke-width:1;" x1="255.2173" x2="255.2173" y1="109.9434" y2="129.9434"/><polygon fill="#181818" points="251.2173,119.9434,255.2173,129.9434,259.2173,119.9434,255.2173,123.9434" style="stroke:#181818;stroke-width:1;"/><line style="stroke:#181818;stroke-width:1;" x1="411.6104" x2="411.6104" y1="109.9434" y2="129.9434"/><polygon fill="#181818" points="407.6104,119.9434,411.6104,129.9434,415.6104,119.9434,411.6104,123.9434" style="stroke:#181818;stroke-width:1;"/><line style="stroke:#181818;stroke-width:1;" x1="607.0674" x2="607.0674" y1="109.9434" y2="129.9434"/><polygon fill="#181818" points="603.0674,119.9434,607.0674,129.9434,611.0674,119.9434,607.0674,123.9434" style="stroke:#181818;stroke-width:1;"/><line style="stroke:#181818;stroke-width:1;" x1="365.7661" x2="365.7661" y1="131.4434" y2="209.9873"/><polygon fill="#181818" points="361.7661,199.9873,365.7661,209.9873,369.7661,199.9873,365.7661,203.9873" style="stroke:#181818;stroke-width:1;"/><text fill="#000000" font-family="sans-serif" font-size="14" lengthAdjust="spacing" textLength="210.7314" x="369.7661" y="154.7402">Passing arguments to method</text><text fill="#000000" font-family="sans-serif" font-size="14" lengthAdjust="spacing" textLength="4.4502" x="369.7661" y="171.0371">&#160;</text><line style="stroke:#181818;stroke-width:1;" x1="256.8291" x2="211.175" y1="298.2842" y2="298.2842"/><line style="stroke:#181818;stroke-width:1;" x1="211.175" x2="211.175" y1="298.2842" y2="320.2842"/><polygon fill="#181818" points="207.175,310.2842,211.175,320.2842,215.175,310.2842,211.175,314.2842" style="stroke:#181818;stroke-width:1;"/><line style="stroke:#181818;stroke-width:1;" x1="474.7031" x2="520.3572" y1="298.2842" y2="298.2842"/><line style="stroke:#181818;stroke-width:1;" x1="520.3572" x2="520.3572" y1="298.2842" y2="320.2842"/><polygon fill="#181818" points="516.3572,310.2842,520.3572,320.2842,524.3572,310.2842,520.3572,314.2842" style="stroke:#181818;stroke-width:1;"/><line style="stroke:#181818;stroke-width:1;" x1="211.175" x2="211.175" y1="356.5811" y2="374.5811"/><line style="stroke:#181818;stroke-width:1;" x1="211.175" x2="353.7661" y1="374.5811" y2="374.5811"/><polygon fill="#181818" points="343.7661,370.5811,353.7661,374.5811,343.7661,378.5811,347.7661,374.5811" style="stroke:#181818;stroke-width:1;"/><line style="stroke:#181818;stroke-width:1;" x1="520.3572" x2="520.3572" y1="356.5811" y2="374.5811"/><line style="stroke:#181818;stroke-width:1;" x1="520.3572" x2="377.7661" y1="374.5811" y2="374.5811"/><polygon fill="#181818" points="387.7661,370.5811,377.7661,374.5811,387.7661,378.5811,383.7661,374.5811" style="stroke:#181818;stroke-width:1;"/><line style="stroke:#181818;stroke-width:1;" x1="365.7661" x2="365.7661" y1="246.2842" y2="286.2842"/><polygon fill="#181818" points="361.7661,276.2842,365.7661,286.2842,369.7661,276.2842,365.7661,280.2842" style="stroke:#181818;stroke-width:1;"/><line style="stroke:#181818;stroke-width:1;" x1="365.7661" x2="365.7661" y1="486.8779" y2="506.8779"/><polygon fill="#181818" points="361.7661,496.8779,365.7661,506.8779,369.7661,496.8779,365.7661,500.8779" style="stroke:#181818;stroke-width:1;"/><line style="stroke:#181818;stroke-width:1;" x1="365.7661" x2="365.7661" y1="643.4717" y2="663.4717"/><polygon fill="#181818" points="361.7661,653.4717,365.7661,663.4717,369.7661,653.4717,365.7661,657.4717" style="stroke:#181818;stroke-width:1;"/><line style="stroke:#181818;stroke-width:1;" x1="365.7661" x2="365.7661" y1="800.0654" y2="820.0654"/><polygon fill="#181818" points="361.7661,810.0654,365.7661,820.0654,369.7661,810.0654,365.7661,814.0654" style="stroke:#181818;stroke-width:1;"/><line style="stroke:#181818;stroke-width:1;" x1="317.1797" x2="317.1797" y1="1076.7373" y2="1096.7373"/><polygon fill="#181818" points="313.1797,1086.7373,317.1797,1096.7373,321.1797,1086.7373,317.1797,1090.7373" style="stroke:#181818;stroke-width:1;"/><line style="stroke:#181818;stroke-width:1;" x1="106.4434" x2="96.4434" y1="997.8467" y2="997.8467"/><line style="stroke:#181818;stroke-width:1;" x1="96.4434" x2="96.4434" y1="997.8467" y2="1024.1436"/><polygon fill="#181818" points="92.4434,1014.1436,96.4434,1024.1436,100.4434,1014.1436,96.4434,1018.1436" style="stroke:#181818;stroke-width:1;"/><line style="stroke:#181818;stroke-width:1;" x1="307.1797" x2="317.1797" y1="997.8467" y2="997.8467"/><line style="stroke:#181818;stroke-width:1;" x1="317.1797" x2="317.1797" y1="997.8467" y2="1024.1436"/><polygon fill="#181818" points="313.1797,1014.1436,317.1797,1024.1436,321.1797,1014.1436,317.1797,1018.1436" style="stroke:#181818;stroke-width:1;"/><line style="stroke:#181818;stroke-width:1;" x1="96.4434" x2="96.4434" y1="1060.4404" y2="1151.0342"/><line style="stroke:#181818;stroke-width:1;" x1="96.4434" x2="194.8115" y1="1151.0342" y2="1151.0342"/><polygon fill="#181818" points="184.8115,1147.0342,194.8115,1151.0342,184.8115,1155.0342,188.8115,1151.0342" style="stroke:#181818;stroke-width:1;"/><line style="stroke:#181818;stroke-width:1;" x1="317.1797" x2="317.1797" y1="1133.0342" y2="1151.0342"/><line style="stroke:#181818;stroke-width:1;" x1="317.1797" x2="218.8115" y1="1151.0342" y2="1151.0342"/><polygon fill="#181818" points="228.8115,1147.0342,218.8115,1151.0342,228.8115,1155.0342,224.8115,1151.0342" style="stroke:#181818;stroke-width:1;"/><line style="stroke:#181818;stroke-width:1;" x1="206.8115" x2="206.8115" y1="956.5498" y2="981.5498"/><polygon fill="#181818" points="202.8115,971.5498,206.8115,981.5498,210.8115,971.5498,206.8115,975.5498" style="stroke:#181818;stroke-width:1;"/><line style="stroke:#181818;stroke-width:1;" x1="253.4897" x2="206.8115" y1="893.9561" y2="893.9561"/><line style="stroke:#181818;stroke-width:1;" x1="206.8115" x2="206.8115" y1="893.9561" y2="920.2529"/><polygon fill="#181818" points="202.8115,910.2529,206.8115,920.2529,210.8115,910.2529,206.8115,914.2529" style="stroke:#181818;stroke-width:1;"/><line style="stroke:#181818;stroke-width:1;" x1="478.0425" x2="524.7207" y1="893.9561" y2="893.9561"/><line style="stroke:#181818;stroke-width:1;" x1="524.7207" x2="524.7207" y1="893.9561" y2="920.2529"/><polygon fill="#181818" points="520.7207,910.2529,524.7207,920.2529,528.7207,910.2529,524.7207,914.2529" style="stroke:#181818;stroke-width:1;"/><line style="stroke:#181818;stroke-width:1;" x1="206.8115" x2="206.8115" y1="1163.0342" y2="1181.0342"/><line style="stroke:#181818;stroke-width:1;" x1="206.8115" x2="353.7661" y1="1181.0342" y2="1181.0342"/><polygon fill="#181818" points="343.7661,1177.0342,353.7661,1181.0342,343.7661,1185.0342,347.7661,1181.0342" style="stroke:#181818;stroke-width:1;"/><line style="stroke:#181818;stroke-width:1;" x1="524.7207" x2="524.7207" y1="956.5498" y2="1181.0342"/><line style="stroke:#181818;stroke-width:1;" x1="524.7207" x2="377.7661" y1="1181.0342" y2="1181.0342"/><polygon fill="#181818" points="387.7661,1177.0342,377.7661,1181.0342,387.7661,1185.0342,383.7661,1181.0342" style="stroke:#181818;stroke-width:1;"/><line style="stroke:#181818;stroke-width:1;" x1="365.7661" x2="365.7661" y1="856.3623" y2="877.6592"/><polygon fill="#181818" points="361.7661,867.6592,365.7661,877.6592,369.7661,867.6592,365.7661,871.6592" style="stroke:#181818;stroke-width:1;"/><line style="stroke:#181818;stroke-width:1;" x1="365.7661" x2="365.7661" y1="743.7686" y2="763.7686"/><polygon fill="#181818" points="361.7661,753.7686,365.7661,763.7686,369.7661,753.7686,365.7661,757.7686" style="stroke:#181818;stroke-width:1;"/><line style="stroke:#181818;stroke-width:1;" x1="611.7603" x2="623.7603" y1="1225.0342" y2="1225.0342"/><polygon fill="#181818" points="619.7603,976.5498,623.7603,966.5498,627.7603,976.5498,623.7603,972.5498" style="stroke:#181818;stroke-width:1;"/><line style="stroke:#181818;stroke-width:1;" x1="623.7603" x2="623.7603" y1="731.7686" y2="1225.0342"/><line style="stroke:#181818;stroke-width:1;" x1="623.7603" x2="377.7661" y1="731.7686" y2="731.7686"/><polygon fill="#181818" points="387.7661,727.7686,377.7661,731.7686,387.7661,735.7686,383.7661,731.7686" style="stroke:#181818;stroke-width:1;"/><line style="stroke:#181818;stroke-width:1;" x1="365.7661" x2="365.7661" y1="1193.0342" y2="1213.0342"/><polygon fill="#181818" points="361.7661,1203.0342,365.7661,1213.0342,369.7661,1203.0342,365.7661,1207.0342" style="stroke:#181818;stroke-width:1;"/><line style="stroke:#181818;stroke-width:1;" x1="365.7661" x2="365.7661" y1="699.7686" y2="719.7686"/><polygon fill="#181818" points="361.7661,709.7686,365.7661,719.7686,369.7661,709.7686,365.7661,713.7686" style="stroke:#181818;stroke-width:1;"/><line style="stroke:#181818;stroke-width:1;" x1="365.7661" x2="365.7661" y1="587.1748" y2="607.1748"/><polygon fill="#181818" points="361.7661,597.1748,365.7661,607.1748,369.7661,597.1748,365.7661,601.1748" style="stroke:#181818;stroke-width:1;"/><line style="stroke:#181818;stroke-width:1;" x1="590.8867" x2="647.7603" y1="1283.5293" y2="1283.5293"/><polygon fill="#181818" points="643.7603,915.2529,647.7603,905.2529,651.7603,915.2529,647.7603,911.2529" style="stroke:#181818;stroke-width:1;"/><line style="stroke:#181818;stroke-width:1;" x1="647.7603" x2="647.7603" y1="575.1748" y2="1283.5293"/><line style="stroke:#181818;stroke-width:1;" x1="647.7603" x2="377.7661" y1="575.1748" y2="575.1748"/><polygon fill="#181818" points="387.7661,571.1748,377.7661,575.1748,387.7661,579.1748,383.7661,575.1748" style="stroke:#181818;stroke-width:1;"/><line style="stroke:#181818;stroke-width:1;" x1="365.7661" x2="365.7661" y1="1237.0342" y2="1271.5293"/><polygon fill="#181818" points="361.7661,1261.5293,365.7661,1271.5293,369.7661,1261.5293,365.7661,1265.5293" style="stroke:#181818;stroke-width:1;"/><line style="stroke:#181818;stroke-width:1;" x1="365.7661" x2="365.7661" y1="543.1748" y2="563.1748"/><polygon fill="#181818" points="361.7661,553.1748,365.7661,563.1748,369.7661,553.1748,365.7661,557.1748" style="stroke:#181818;stroke-width:1;"/><line style="stroke:#181818;stroke-width:1;" x1="365.7661" x2="365.7661" y1="430.5811" y2="450.5811"/><polygon fill="#181818" points="361.7661,440.5811,365.7661,450.5811,369.7661,440.5811,365.7661,444.5811" style="stroke:#181818;stroke-width:1;"/><line style="stroke:#181818;stroke-width:1;" x1="525.2617" x2="671.7603" y1="1342.0244" y2="1342.0244"/><polygon fill="#181818" points="667.7603,857.6592,671.7603,847.6592,675.7603,857.6592,671.7603,853.6592" style="stroke:#181818;stroke-width:1;"/><line style="stroke:#181818;stroke-width:1;" x1="671.7603" x2="671.7603" y1="418.5811" y2="1342.0244"/><line style="stroke:#181818;stroke-width:1;" x1="671.7603" x2="377.7661" y1="418.5811" y2="418.5811"/><polygon fill="#181818" points="387.7661,414.5811,377.7661,418.5811,387.7661,422.5811,383.7661,418.5811" style="stroke:#181818;stroke-width:1;"/><line style="stroke:#181818;stroke-width:1;" x1="365.7661" x2="365.7661" y1="1295.5293" y2="1330.0244"/><polygon fill="#181818" points="361.7661,1320.0244,365.7661,1330.0244,369.7661,1320.0244,365.7661,1324.0244" style="stroke:#181818;stroke-width:1;"/><line style="stroke:#181818;stroke-width:1;" x1="365.7661" x2="365.7661" y1="386.5811" y2="406.5811"/><polygon fill="#181818" points="361.7661,396.5811,365.7661,406.5811,369.7661,396.5811,365.7661,400.5811" style="stroke:#181818;stroke-width:1;"/><line style="stroke:#181818;stroke-width:1;" x1="256.8291" x2="246.8291" y1="1400.5195" y2="1400.5195"/><line style="stroke:#181818;stroke-width:1;" x1="246.8291" x2="246.8291" y1="1400.5195" y2="1422.5195"/><polygon fill="#181818" points="242.8291,1412.5195,246.8291,1422.5195,250.8291,1412.5195,246.8291,1416.5195" style="stroke:#181818;stroke-width:1;"/><line style="stroke:#181818;stroke-width:1;" x1="474.7031" x2="484.7031" y1="1400.5195" y2="1400.5195"/><line style="stroke:#181818;stroke-width:1;" x1="484.7031" x2="484.7031" y1="1400.5195" y2="1422.5195"/><polygon fill="#181818" points="480.7031,1412.5195,484.7031,1422.5195,488.7031,1412.5195,484.7031,1416.5195" style="stroke:#181818;stroke-width:1;"/><line style="stroke:#181818;stroke-width:1;" x1="246.8291" x2="246.8291" y1="1475.1133" y2="1493.1133"/><line style="stroke:#181818;stroke-width:1;" x1="246.8291" x2="353.7661" y1="1493.1133" y2="1493.1133"/><polygon fill="#181818" points="343.7661,1489.1133,353.7661,1493.1133,343.7661,1497.1133,347.7661,1493.1133" style="stroke:#181818;stroke-width:1;"/><line style="stroke:#181818;stroke-width:1;" x1="484.7031" x2="484.7031" y1="1475.1133" y2="1493.1133"/><line style="stroke:#181818;stroke-width:1;" x1="484.7031" x2="377.7661" y1="1493.1133" y2="1493.1133"/><polygon fill="#181818" points="387.7661,1489.1133,377.7661,1493.1133,387.7661,1497.1133,383.7661,1493.1133" style="stroke:#181818;stroke-width:1;"/><line style="stroke:#181818;stroke-width:1;" x1="365.7661" x2="365.7661" y1="1354.0244" y2="1388.5195"/><polygon fill="#181818" points="361.7661,1378.5195,365.7661,1388.5195,369.7661,1378.5195,365.7661,1382.5195" style="stroke:#181818;stroke-width:1;"/><line style="stroke:#181818;stroke-width:1;" x1="365.7661" x2="365.7661" y1="1505.1133" y2="1525.1133"/><polygon fill="#181818" points="361.7661,1515.1133,365.7661,1525.1133,369.7661,1515.1133,365.7661,1519.1133" style="stroke:#181818;stroke-width:1;"/><!--SRC=[hLN1SjCm4BtxAtRe9SdGDcaBJLCZfcaQXXccCBJ31JYerYOMSQIC93SDJF-TbUoqSJ0q0NnmOgzsz-czftLitI935isuST99hNv4GDT7dIjnher20yVHVKJnPCB7M1VrR_eK7flYTQODxFJFBruCX_THl5ysi1Efg0cVWi0HppCtrCfToUy8dQEL8878q8Sk-HJX2eqSrKMBnEvwgA-DG5D0w6U4gNx1TIgJYK9huQ1-mUe6E-qeHE3DnViFEbkaA8nMUqEfn90dQ1lDoCuowG8FkvzJAGIghxiiFFTQhJZnS7exPyVjYqwNtI8HJMdlbS-EzqEKjLgd4CU497UC5VM0ZxbKJrLjzqywWnTiv94CFUf_hjWvF7fvE22SoIU26hRuppMF1krETyXKFZqJtwYYSfzA6kfBen9GaBhBu0EtLgenS3FEfvHgmMcOeakrY4wNneHdhLP5e5QhN6EV5QRjnPBjbUsJnJjfNMDZSPx3TdjfnlkI-GtDZ4vGv0PPmGcT93c2pHllMJ9wemaCsarmAIfeBD0sezuouLgVfvXCu1LiM_CqmimYD9H-ebpxuA1xUC8kyscDQ5ugEgAHmHbo5_NEaiIVAuLt3dnHlFCqP9eBOg1tnMyHl6aia1eZQMmW3- -MV5bQG0i3LsN9eDqVouOLrT8M4wr4RMs_EjpMUcpMfwQNIwNvVIj_USa76grN452GMs_GpP7Kz2- -qCzS0o_T14ij0E_8fA-NkfToZ0tbiM02MBbwLzeuy6FWCJyFnyQpGR56uSbAaiS5S4qOGkASziCpWrmi29JVWm2fOCFHi0xKeAY1IR8ugNBqB9N_TMvNkF9NOSpAXhrBAuN2FGWHi1FE-8RvKxq2xOOzXqfMkUI297XO0fo6pHRZRqtR0EQjIeWs0htnO7RSJjPt7KvIBGUUoryOU9BAQi72wZ1F9NtB6WCfl8F7caIZx_Ou9UMpO4TDD_De8ZqARul3K1cV9BYqwn11QVSxhswAu7_tZhPjN4v1Qh9Db_yps07EIZJ1Eg3LmuFd8_8FoowmStJSFddPPRE7pzvZ1vYZeJnllSge3sPOwr7m7Fr5tMBwMwTdFm40]--></g></svg>